<?xml version="1.0" encoding="utf-8" standalone="no"?>
<!DOCTYPE svg PUBLIC "-//W3C//DTD SVG 20010904//EN" "http://www.w3.org/TR/2001/REC-SVG-20010904/DTD/svg10.dtd"[]>
<svg version="1.0" xmlns="http://www.w3.org/2000/svg" width="3625.2603" height="1518.6901" viewBox="685.86 1665.66 3625.2603 1518.6901" preserveAspectRatio="xMidYMid meet">
  <g transform="translate(0.000000,4899.000000) scale(0.100000,-0.100000)" fill="#ffffff" stroke="none">
    <path d="M24329 30972 c-315 -104 -401 -513 -155 -740 254 -234 686 -78 724 261 23 199 -69 372 -242 457 -64 32 -79 35 -170 37 -77 2 -114 -1 -157 -15z" />
    <path d="M30650 30320 l0 -550 -459 -2 -460 -3 147 -342 147 -342 313 -1 312 0 0 -1342 c0 -738 -4 -1338 -8 -1333 -5 6 -326 767 -713 1692 l-704 1683 -442 0 -441 0 -60 -142 c-128 -304 -945 -2254 -954 -2278 -8 -20 -11 -22 -18 -10 -4 8 -150 463 -325 1010 -174 547 -348 1093 -386 1213 l-70 217 -469 0 c-259 0 -470 -1 -470 -2 0 -2 -229 -986 -509 -2188 l-508 -2185 -74 0 -73 0 -541 2185 -541 2185 -474 0 -474 0 -621 -1950 c-342 -1072 -626 -1963 -631 -1979 l-10 -29 -140 139 c-77 76 -170 180 -207 229 -188 256 -315 562 -361 877 -27 181 -26 192 45 273 181 211 306 481 345 745 23 161 15 394 -19 541 -132 562 -569 988 -1140 1111 -84 18 -134 22 -287 22 -153 0 -203 -4 -287 -22 -273 -59 -517 -186 -717 -373 l-86 -81 0 -1466 c0 -806 -3 -1462 -7 -1458 -4 4 -327 771 -718 1704 l-711 1697 -469 0 -468 0 -355 -847 -355 -848 -1169 0 -1168 0 0 -90 0 -90 1130 0 1130 0 -10 -25 c-5 -14 -37 -90 -71 -170 l-61 -145 -1704 0 -1704 0 0 -90 0 -90 1665 0 c916 0 1665 -2 1665 -4 0 -6 -641 -1540 -646 -1545 -2 -2 -54 45 -116 105 -482 466 -1085 802 -1726 963 -294 74 -558 108 -907 117 -235 6 -297 16 -439 73 -343 137 -596 465 -646 839 -33 241 30 513 167 719 50 76 171 203 253 265 88 68 245 142 365 175 l100 27 499 4 c453 3 498 2 492 -13 -43 -113 -73 -287 -81 -470 -5 -100 -4 -117 7 -101 156 227 375 421 587 519 l73 34 -60 74 c-70 87 -212 226 -299 292 -523 398 -1222 467 -1820 181 -334 -159 -648 -473 -807 -807 -198 -413 -229 -866 -89 -1302 157 -489 540 -897 1018 -1084 230 -90 353 -111 710 -121 356 -11 546 -39 835 -127 379 -114 763 -316 1068 -559 131 -104 400 -375 502 -504 223 -281 406 -618 522 -960 242 -716 217 -1497 -72 -2199 -369 -899 -1127 -1577 -2062 -1845 -69 -20 -129 -36 -132 -36 -4 0 -5 93 -4 207 l3 207 135 46 c432 146 771 358 1093 681 76 77 143 137 148 134 5 -3 6 0 3 8 -6 18 44 79 58 70 6 -3 8 -1 4 5 -3 6 26 55 65 109 595 819 687 1916 238 2829 -150 305 -381 610 -629 829 -474 419 -1058 665 -1668 701 l-112 7 7 -1011 6 -1012 -1577 0 c-1497 0 -1577 1 -1572 18 131 467 291 805 537 1133 218 290 486 543 781 742 59 39 106 73 104 74 -3 4 -188 -43 -280 -71 -297 -91 -644 -278 -903 -487 -419 -338 -754 -832 -905 -1331 l-23 -78 -205 0 c-177 0 -210 -3 -245 -19 -104 -47 -239 -263 -359 -573 -72 -185 -98 -317 -111 -553 -5 -91 -3 -107 7 -91 154 228 369 419 595 527 72 34 90 39 156 39 l74 0 6 -217 c6 -216 18 -334 57 -550 133 -743 516 -1468 1067 -2021 l133 -133 0 -699 0 -700 90 0 90 0 0 620 c0 341 2 620 5 620 3 0 54 -36 114 -80 474 -349 1031 -592 1581 -689 221 -40 337 -52 557 -58 l223 -6 0 -655 0 -655 48 74 c119 181 282 355 455 485 55 42 111 81 124 87 l23 10 2 360 3 360 145 33 c1005 233 1877 869 2420 1764 564 930 706 2047 393 3095 -88 295 -226 605 -388 874 l-87 143 32 61 c75 142 221 329 357 458 584 547 1436 675 2149 323 369 -182 675 -467 873 -814 62 -107 171 -358 171 -392 0 -10 2 -18 4 -18 2 0 30 18 63 39 140 94 325 119 488 67 44 -14 95 -35 113 -46 18 -11 35 -20 37 -20 3 0 5 427 5 948 l0 949 278 6 c179 4 305 12 357 22 160 30 155 30 155 7 0 -11 16 -85 36 -163 117 -466 350 -876 694 -1219 141 -142 234 -218 410 -336 356 -237 777 -385 1211 -424 79 -7 327 -10 689 -8 l566 3 -83 335 c-45 184 -82 338 -82 343 -1 4 -223 7 -494 7 -284 0 -528 4 -577 11 -100 12 -282 48 -292 57 -7 7 1047 3199 1061 3214 4 5 1143 -4669 1169 -4799 l4 -23 -1261 0 -1261 0 0 -90 0 -90 1284 0 1284 0 62 -257 c34 -142 68 -281 75 -310 7 -28 10 -54 7 -57 -3 -3 -248 -6 -544 -6 l-538 0 0 -85 0 -85 566 -2 567 -3 86 -357 c47 -196 89 -359 91 -362 3 -2 44 158 91 357 l85 362 547 3 547 2 0 85 0 85 -525 0 c-289 0 -525 3 -525 8 1 4 34 144 74 312 l72 305 1267 3 1267 2 0 90 0 90 -1239 0 c-682 0 -1242 3 -1244 8 -5 9 1125 4772 1133 4772 3 0 187 -546 409 -1213 l403 -1212 -169 -405 -170 -405 -373 -5 -374 -5 -81 -340 -82 -340 655 -3 c360 -1 657 0 659 2 2 2 13 44 23 92 139 663 631 1211 1276 1423 454 149 909 120 1354 -86 458 -212 837 -638 995 -1119 22 -65 40 -120 41 -122 1 -1 27 13 59 33 119 71 248 100 379 84 88 -11 126 -23 204 -65 l62 -34 0 2075 0 2075 291 2 290 3 164 340 164 340 -455 3 -454 2 0 549 0 549 -62 -33 c-94 -50 -169 -68 -273 -68 -99 1 -210 31 -285 78 l-40 25 0 -550z m-1386 -2334 c263 -626 475 -1140 473 -1142 -2 -2 -50 12 -108 31 -337 115 -652 160 -980 143 -229 -12 -421 -49 -667 -130 -85 -27 -155 -48 -156 -46 -2 1 212 516 475 1143 263 627 479 1142 479 1144 0 2 2 2 4 0 2 -2 218 -516 480 -1143z m-9699 1070 c33 -9 103 -37 155 -63 81 -39 109 -60 191 -142 82 -82 103 -110 143 -191 69 -141 90 -236 84 -385 -4 -95 -11 -136 -32 -200 -73 -213 -205 -365 -401 -460 -148 -71 -193 -79 -480 -79 l-250 -1 -3 718 -2 718 72 34 c64 29 138 53 218 69 48 9 245 -2 305 -18z m-2914 -769 l336 -732 -324 -3 c-178 -1 -469 -1 -647 0 l-323 3 306 732 c168 403 308 733 311 733 3 0 156 -330 341 -733z m540 -1177 c65 -140 118 -258 119 -261 0 -4 -55 11 -122 32 -296 94 -487 123 -813 123 -338 0 -544 -33 -843 -134 -115 -39 -142 -45 -138 -32 4 9 55 133 114 275 l107 257 729 -2 730 -3 117 -255z m-4899 -2061 c612 -269 1066 -829 1197 -1474 77 -381 47 -779 -85 -1132 -160 -429 -467 -803 -856 -1045 -93 -58 -317 -168 -342 -168 -15 0 -16 167 -16 1930 0 1062 2 1930 5 1930 2 0 46 -18 97 -41z m-3412 -2769 c0 -517 -2 -940 -5 -940 -8 0 -166 270 -225 385 -212 414 -321 840 -345 1358 l-7 137 291 0 291 0 0 -940z m1197 917 c-106 -162 -136 -214 -182 -310 -60 -128 -104 -258 -137 -408 -20 -92 -22 -132 -22 -339 0 -258 10 -331 75 -539 40 -128 154 -354 236 -471 87 -122 291 -326 413 -413 135 -95 321 -187 491 -242 166 -53 299 -75 472 -75 l117 0 0 -205 0 -205 -22 0 c-119 1 -403 23 -514 40 -702 102 -1391 468 -1859 985 l-85 95 0 1055 0 1055 516 0 516 0 -15 -23z m1463 -1053 l0 -1057 -127 6 c-156 6 -248 29 -392 98 -127 60 -214 123 -317 231 -189 197 -285 438 -285 718 0 286 96 522 296 728 206 214 461 324 768 331 l57 1 0 -1056z" />
    <path d="M37330 29789 c-454 -51 -879 -285 -1162 -638 l-60 -74 73 -34 c215 -99 424 -284 587 -519 11 -16 12 3 7 108 -6 145 -34 325 -65 412 -11 33 -20 61 -20 63 0 2 224 3 498 1 l497 -4 100 -27 c120 -33 277 -107 365 -175 82 -62 203 -189 253 -265 172 -259 222 -601 130 -891 -112 -355 -397 -626 -754 -715 -67 -16 -127 -22 -296 -26 -418 -10 -739 -60 -1101 -171 -364 -113 -741 -297 -1055 -518 -291 -204 -596 -489 -810 -758 -116 -144 -118 -147 -170 -158 -28 -7 -108 -14 -177 -17 -195 -8 -366 29 -542 117 -126 63 -187 108 -304 224 -122 123 -184 212 -241 353 -34 83 -37 97 -44 238 -4 83 -8 259 -8 393 l-1 242 1080 0 c594 0 1080 4 1080 8 0 4 -29 95 -65 202 -36 107 -65 200 -65 207 0 11 231 13 1195 13 l1195 0 0 90 0 90 -2210 0 -2210 0 0 63 c0 35 -3 105 -6 155 l-7 92 1567 0 1566 0 0 90 0 90 -1562 2 -1563 3 -3 512 -2 513 1193 2 1194 3 -163 340 -162 340 -1173 2 -1174 3 -187 -390 -188 -389 0 -471 0 -470 -305 0 -305 0 0 -90 0 -90 305 0 304 0 3 -872 3 -873 27 -97 c86 -311 236 -566 473 -803 290 -290 628 -462 1018 -518 54 -8 99 -16 101 -18 2 -2 -21 -66 -50 -142 -230 -586 -310 -1255 -228 -1883 142 -1090 749 -2075 1659 -2693 397 -269 829 -459 1285 -565 l145 -33 3 -360 2 -360 23 -10 c13 -6 69 -45 124 -87 173 -130 336 -304 455 -485 l48 -73 2 653 3 654 210 6 c771 23 1499 277 2141 745 64 46 117 84 120 84 2 0 4 -279 4 -620 l0 -620 90 0 90 0 0 700 0 700 123 123 c509 506 862 1128 1031 1817 60 247 106 573 106 765 0 44 3 110 7 148 l6 67 69 0 c60 0 80 -5 151 -39 200 -96 429 -289 557 -471 l52 -75 -6 110 c-9 136 -30 295 -52 378 -42 166 -188 486 -279 612 -106 147 -125 155 -387 155 l-203 1 -50 152 c-60 185 -195 460 -307 627 -399 596 -1007 1018 -1688 1174 -36 8 -66 13 -67 12 -1 -1 39 -29 90 -62 359 -236 717 -602 943 -966 169 -273 287 -549 390 -920 5 -17 -75 -18 -1572 -18 l-1577 0 6 1012 7 1011 -112 -7 c-622 -37 -1207 -288 -1693 -724 -257 -231 -504 -573 -645 -892 -262 -591 -311 -1236 -144 -1859 30 -110 34 -135 23 -143 -11 -8 -11 -9 2 -5 13 4 22 -10 43 -67 75 -212 204 -457 344 -653 70 -99 81 -118 70 -132 -11 -14 -11 -14 3 -3 14 11 26 1 87 -70 149 -176 369 -370 569 -501 214 -140 406 -233 653 -317 l135 -46 3 -207 c1 -114 -1 -207 -4 -207 -4 0 -70 18 -146 40 -1685 488 -2657 2268 -2151 3940 105 348 284 703 493 981 248 329 571 621 910 823 298 178 618 306 950 379 208 47 316 58 605 67 294 8 387 20 548 66 515 146 941 531 1143 1031 153 381 163 825 27 1217 -149 431 -483 807 -886 1000 -297 143 -638 201 -957 165z m-530 -6629 c0 -1763 -1 -1930 -16 -1930 -25 0 -249 110 -342 168 -183 114 -365 274 -510 447 -551 660 -627 1614 -188 2358 214 364 544 659 936 838 58 26 108 48 113 49 4 0 7 -868 7 -1930z m3130 -996 l0 -1057 -95 -103 c-482 -520 -1149 -872 -1848 -974 -146 -22 -437 -41 -499 -33 l-38 5 0 199 0 199 118 0 c178 0 306 21 477 78 303 100 527 240 740 464 224 235 373 521 447 858 20 93 22 133 22 340 0 207 -2 248 -22 340 -50 228 -137 439 -259 625 -32 50 -62 96 -67 103 -6 9 99 12 508 12 l516 0 0 -1056z m756 919 c-30 -615 -166 -1069 -476 -1590 -50 -84 -93 -153 -95 -153 -3 0 -5 423 -5 940 l0 940 291 0 291 0 -6 -137z m-2956 91 c105 -22 235 -73 332 -130 114 -67 287 -239 357 -354 208 -341 205 -769 -6 -1108 -51 -83 -174 -217 -256 -281 -174 -133 -415 -215 -613 -209 l-89 3 -3 1040 c-1 572 0 1046 3 1054 7 17 157 8 275 -15z" />
  </g>
</svg>