<?xml version="1.0" encoding="utf-8"?>
<svg xmlns="http://www.w3.org/2000/svg" xmlns:xlink="http://www.w3.org/1999/xlink" viewBox="0 0 1024 1024" preserveAspectRatio="xMidYMid meet">
<style><![CDATA[
  :root{background:#000}
  svg{display:block}
  .piece { pointer-events:none; }
  path { fill:#ffffff; stroke:none; }
]]></style>
<rect width="100%" height="100%" fill="#000000"/>

    <g id="g0" class="piece" transform="translate(0 0)">
      <path d="M 0 924 L 0 941 L 1 941 L 2 942 L 3 942 L 4 943 L 6 943 L 7 944 L 8 944 L 9 945 L 10 945 L 11 946 L 11 943 L 10 942 L 10 940 L 9 939 L 9 938 L 8 937 L 8 935 L 6 933 L 6 932 L 5 931 L 5 930 L 3 928 L 3 927 Z" fill="#FFFFFF"/>
      <animateTransform attributeName="transform"
                        attributeType="XML"
                        type="translate"
                        values="0 0; 21.35 6.6; -12.81 -3.9599999999999995; 0 0"
                        dur="11.12s"
                        repeatCount="indefinite"
                        calcMode="spline"
                        keySplines="0.25 0.1 0.25 1; 0.25 0.1 0.25 1; 0.25 0.1 0.25 1" />
      <animateTransform attributeName="transform"
                        attributeType="XML"
                        type="rotate"
                        values="0; 2.38; -1.428; 0"
                        dur="23.26s"
                        repeatCount="indefinite"
                        additive="sum"
                        calcMode="spline"
                        keySplines="0.25 0.1 0.25 1; 0.25 0.1 0.25 1; 0.25 0.1 0.25 1" />
    </g>
    

    <g id="g1" class="piece" transform="translate(0 0)">
      <path d="M 54 815 L 53 816 L 50 816 L 49 817 L 48 817 L 47 818 L 46 818 L 45 819 L 44 819 L 39 824 L 39 825 L 37 827 L 37 829 L 36 830 L 36 832 L 35 833 L 35 841 L 36 842 L 36 845 L 37 846 L 37 847 L 38 848 L 38 849 L 42 853 L 49 853 L 49 851 L 50 850 L 53 850 L 53 848 L 55 846 L 55 842 L 53 840 L 53 838 L 52 837 L 52 834 L 55 831 L 56 831 L 57 830 L 64 830 L 65 831 L 67 831 L 68 832 L 69 832 L 77 840 L 77 841 L 78 842 L 78 843 L 79 844 L 79 845 L 80 846 L 80 849 L 81 850 L 81 858 L 80 859 L 80 862 L 79 863 L 79 865 L 78 866 L 78 867 L 71 874 L 70 874 L 69 875 L 68 875 L 67 876 L 66 876 L 65 877 L 63 877 L 62 878 L 59 878 L 58 879 L 45 879 L 44 878 L 42 878 L 41 877 L 39 877 L 38 876 L 37 876 L 35 874 L 34 874 L 32 872 L 32 871 L 30 869 L 30 867 L 29 866 L 29 859 L 28 858 L 28 853 L 27 852 L 27 848 L 26 847 L 26 845 L 25 844 L 25 842 L 24 841 L 24 840 L 23 839 L 23 838 L 20 835 L 19 835 L 18 834 L 17 834 L 16 833 L 15 833 L 14 832 L 13 832 L 12 831 L 11 831 L 10 830 L 9 830 L 8 829 L 7 829 L 6 828 L 4 828 L 3 827 L 1 827 L 0 826 L 0 907 L 7 914 L 7 915 L 12 920 L 12 921 L 21 930 L 22 930 L 23 931 L 24 931 L 25 932 L 27 932 L 29 934 L 30 934 L 30 927 L 29 926 L 29 924 L 28 923 L 28 922 L 26 920 L 26 919 L 24 917 L 24 916 L 18 910 L 18 909 L 11 902 L 11 901 L 8 898 L 8 897 L 5 894 L 5 893 L 3 891 L 3 890 L 2 889 L 2 884 L 4 882 L 11 882 L 12 883 L 15 883 L 16 884 L 18 884 L 19 885 L 21 885 L 22 886 L 24 886 L 25 887 L 27 887 L 28 888 L 30 888 L 31 889 L 34 889 L 35 890 L 38 890 L 39 891 L 44 891 L 45 892 L 58 892 L 59 891 L 63 891 L 64 890 L 67 890 L 68 889 L 69 889 L 70 888 L 72 888 L 74 886 L 75 886 L 76 885 L 77 885 L 79 883 L 80 883 L 89 874 L 89 873 L 91 871 L 91 870 L 93 868 L 93 867 L 94 866 L 94 864 L 95 863 L 95 862 L 96 861 L 96 859 L 97 858 L 97 854 L 98 853 L 98 842 L 97 841 L 97 839 L 96 838 L 96 836 L 95 835 L 95 834 L 94 833 L 94 832 L 91 829 L 91 828 L 89 826 L 88 826 L 85 823 L 84 823 L 82 821 L 81 821 L 80 820 L 79 820 L 78 819 L 77 819 L 76 818 L 74 818 L 73 817 L 70 817 L 69 816 L 66 816 L 65 815 Z" fill="#FFFFFF"/>
      <animateTransform attributeName="transform"
                        attributeType="XML"
                        type="translate"
                        values="0 0; 22.24 27.41; -13.344 -16.445999999999998; 0 0"
                        dur="13.91s"
                        repeatCount="indefinite"
                        calcMode="spline"
                        keySplines="0.25 0.1 0.25 1; 0.25 0.1 0.25 1; 0.25 0.1 0.25 1" />
      <animateTransform attributeName="transform"
                        attributeType="XML"
                        type="rotate"
                        values="0; 1.43; -0.858; 0"
                        dur="10.54s"
                        repeatCount="indefinite"
                        additive="sum"
                        calcMode="spline"
                        keySplines="0.25 0.1 0.25 1; 0.25 0.1 0.25 1; 0.25 0.1 0.25 1" />
    </g>
    

    <g id="g2" class="piece" transform="translate(0 0)">
      <path d="M 705 782 L 704 783 L 696 783 L 695 784 L 690 784 L 689 785 L 685 785 L 684 786 L 681 786 L 680 787 L 677 787 L 676 788 L 674 788 L 673 789 L 671 789 L 670 790 L 668 790 L 667 791 L 665 791 L 664 792 L 662 792 L 661 793 L 660 793 L 659 794 L 657 794 L 656 795 L 655 795 L 654 796 L 653 796 L 652 797 L 651 797 L 650 798 L 648 798 L 647 799 L 646 799 L 645 800 L 644 800 L 643 801 L 642 801 L 641 802 L 640 802 L 639 803 L 638 803 L 637 804 L 636 804 L 635 805 L 634 805 L 633 806 L 632 806 L 631 807 L 630 807 L 629 808 L 628 808 L 627 809 L 626 809 L 625 810 L 624 810 L 623 811 L 622 811 L 621 812 L 619 812 L 618 813 L 617 813 L 616 814 L 614 814 L 613 815 L 610 815 L 609 816 L 605 816 L 604 817 L 597 817 L 596 818 L 575 818 L 574 817 L 565 817 L 564 816 L 546 816 L 545 817 L 543 817 L 544 818 L 543 819 L 541 819 L 540 818 L 538 818 L 538 819 L 537 820 L 536 820 L 536 821 L 537 821 L 541 825 L 539 827 L 537 827 L 539 829 L 540 829 L 541 830 L 542 830 L 543 831 L 544 831 L 545 832 L 548 832 L 549 833 L 555 833 L 556 834 L 559 834 L 560 835 L 564 835 L 565 836 L 568 836 L 569 837 L 571 837 L 572 838 L 574 838 L 575 839 L 577 839 L 578 840 L 579 840 L 580 841 L 582 841 L 584 843 L 585 843 L 586 844 L 587 844 L 588 845 L 589 845 L 592 848 L 593 848 L 600 855 L 600 856 L 603 859 L 603 860 L 604 861 L 604 862 L 605 863 L 605 864 L 606 865 L 606 867 L 607 868 L 607 871 L 608 872 L 608 879 L 609 880 L 609 886 L 608 887 L 608 896 L 607 897 L 607 901 L 606 902 L 606 906 L 605 907 L 605 910 L 604 911 L 604 914 L 603 915 L 603 917 L 602 918 L 602 921 L 601 922 L 601 924 L 600 925 L 600 928 L 599 929 L 599 931 L 598 932 L 598 934 L 597 935 L 597 938 L 596 939 L 596 943 L 595 944 L 595 948 L 594 949 L 594 953 L 593 954 L 593 957 L 592 958 L 592 959 L 591 960 L 591 962 L 590 963 L 590 964 L 588 966 L 588 967 L 587 968 L 587 969 L 577 979 L 576 979 L 574 981 L 573 981 L 572 982 L 571 982 L 570 983 L 569 983 L 568 984 L 567 984 L 566 985 L 565 985 L 564 986 L 563 986 L 562 987 L 561 987 L 560 988 L 558 988 L 557 989 L 555 989 L 554 990 L 553 990 L 552 991 L 549 991 L 548 992 L 545 992 L 548 992 L 549 993 L 548 994 L 547 994 L 546 995 L 545 995 L 547 995 L 548 996 L 549 996 L 550 997 L 549 998 L 547 998 L 548 998 L 549 999 L 553 999 L 554 1000 L 556 1000 L 557 1001 L 559 1001 L 560 1002 L 562 1002 L 563 1003 L 564 1003 L 565 1004 L 567 1004 L 568 1005 L 570 1005 L 571 1006 L 573 1006 L 574 1007 L 576 1007 L 577 1008 L 579 1008 L 580 1009 L 582 1009 L 583 1010 L 585 1010 L 586 1011 L 588 1011 L 589 1012 L 591 1012 L 592 1013 L 595 1013 L 596 1014 L 599 1014 L 600 1015 L 603 1015 L 604 1016 L 608 1016 L 609 1017 L 618 1017 L 619 1018 L 636 1018 L 637 1017 L 645 1017 L 646 1016 L 651 1016 L 652 1015 L 655 1015 L 656 1014 L 658 1014 L 659 1013 L 661 1013 L 662 1012 L 663 1012 L 666 1009 L 667 1009 L 667 1008 L 668 1007 L 668 1006 L 669 1005 L 669 1003 L 668 1002 L 668 1001 L 665 998 L 665 997 L 658 990 L 658 989 L 656 987 L 656 986 L 654 984 L 654 983 L 652 981 L 652 980 L 651 979 L 651 978 L 650 977 L 650 976 L 649 975 L 649 974 L 648 973 L 648 972 L 647 971 L 647 970 L 646 969 L 646 968 L 645 967 L 645 966 L 644 965 L 644 964 L 643 963 L 643 962 L 642 961 L 642 960 L 641 959 L 641 957 L 640 956 L 640 955 L 639 954 L 639 953 L 638 952 L 638 950 L 637 949 L 637 948 L 636 947 L 636 945 L 635 944 L 635 943 L 634 942 L 634 940 L 633 939 L 633 936 L 632 935 L 632 931 L 631 930 L 631 923 L 630 922 L 630 920 L 631 919 L 631 905 L 632 904 L 632 876 L 633 875 L 633 872 L 634 871 L 634 870 L 635 869 L 635 868 L 642 861 L 643 861 L 644 860 L 645 860 L 646 859 L 647 859 L 648 858 L 650 858 L 651 857 L 654 857 L 655 856 L 659 856 L 660 855 L 664 855 L 665 854 L 671 854 L 672 853 L 678 853 L 679 852 L 687 852 L 688 851 L 718 851 L 719 852 L 726 852 L 727 853 L 732 853 L 733 854 L 736 854 L 737 855 L 739 855 L 740 856 L 741 856 L 742 857 L 743 857 L 744 858 L 745 858 L 746 859 L 747 859 L 749 861 L 750 861 L 759 870 L 759 871 L 761 873 L 761 874 L 763 876 L 763 877 L 764 878 L 764 879 L 765 880 L 765 881 L 766 882 L 766 883 L 767 884 L 767 886 L 768 887 L 768 888 L 769 889 L 769 891 L 770 892 L 770 894 L 771 895 L 771 898 L 772 899 L 772 902 L 773 903 L 773 907 L 774 908 L 774 925 L 773 926 L 773 931 L 772 932 L 772 934 L 771 935 L 771 937 L 770 938 L 770 939 L 769 940 L 769 941 L 768 942 L 768 943 L 767 944 L 767 945 L 766 946 L 766 947 L 765 948 L 765 949 L 763 951 L 763 952 L 762 953 L 762 954 L 759 957 L 759 958 L 756 961 L 756 962 L 742 976 L 741 976 L 738 979 L 737 979 L 734 982 L 733 982 L 732 983 L 731 983 L 729 985 L 728 985 L 727 986 L 726 986 L 725 987 L 724 987 L 723 988 L 722 988 L 721 989 L 720 989 L 719 990 L 718 990 L 717 991 L 716 991 L 715 992 L 716 992 L 717 991 L 718 991 L 719 990 L 720 990 L 721 989 L 722 989 L 723 990 L 718 995 L 720 995 L 721 996 L 721 997 L 720 998 L 716 998 L 715 999 L 714 999 L 717 999 L 718 998 L 723 998 L 724 999 L 732 999 L 733 998 L 735 998 L 736 997 L 738 997 L 739 996 L 741 996 L 742 995 L 743 995 L 744 994 L 745 994 L 747 992 L 748 992 L 750 990 L 751 990 L 753 988 L 754 988 L 759 983 L 760 983 L 768 975 L 768 974 L 773 969 L 773 968 L 776 965 L 776 964 L 778 962 L 778 961 L 780 959 L 780 958 L 782 956 L 782 955 L 783 954 L 783 953 L 784 952 L 784 951 L 785 950 L 785 949 L 786 948 L 786 946 L 787 945 L 787 944 L 788 943 L 788 942 L 789 941 L 789 939 L 790 938 L 790 937 L 791 936 L 791 934 L 792 933 L 792 909 L 791 908 L 791 903 L 790 902 L 790 898 L 789 897 L 789 894 L 788 893 L 788 890 L 787 889 L 787 887 L 786 886 L 786 884 L 785 883 L 785 882 L 784 881 L 784 879 L 783 878 L 783 877 L 782 876 L 782 874 L 781 873 L 781 872 L 780 871 L 780 870 L 778 868 L 778 867 L 777 866 L 777 865 L 775 863 L 775 862 L 773 860 L 773 859 L 767 853 L 767 852 L 766 852 L 760 846 L 759 846 L 756 843 L 755 843 L 753 841 L 752 841 L 751 840 L 750 840 L 749 839 L 748 839 L 747 838 L 746 838 L 745 837 L 743 837 L 742 836 L 741 836 L 740 835 L 737 835 L 736 834 L 733 834 L 732 833 L 728 833 L 727 832 L 719 832 L 718 831 L 695 831 L 694 832 L 682 832 L 681 833 L 652 833 L 651 832 L 649 832 L 648 831 L 646 831 L 645 830 L 644 830 L 643 829 L 645 827 L 645 826 L 648 823 L 649 823 L 653 819 L 654 819 L 656 817 L 657 817 L 659 815 L 660 815 L 661 814 L 662 814 L 663 813 L 664 813 L 665 812 L 667 812 L 668 811 L 669 811 L 670 810 L 672 810 L 673 809 L 676 809 L 677 808 L 679 808 L 680 807 L 683 807 L 684 806 L 688 806 L 689 805 L 693 805 L 694 804 L 701 804 L 702 803 L 729 803 L 730 804 L 735 804 L 736 805 L 739 805 L 740 806 L 743 806 L 744 807 L 746 807 L 747 808 L 748 808 L 749 809 L 751 809 L 752 810 L 753 810 L 754 811 L 755 811 L 756 812 L 758 812 L 760 814 L 761 814 L 762 815 L 763 815 L 765 817 L 766 817 L 768 819 L 769 819 L 773 823 L 774 823 L 788 837 L 788 838 L 791 841 L 791 842 L 794 845 L 794 846 L 795 847 L 795 848 L 796 849 L 796 850 L 797 851 L 797 852 L 798 853 L 798 854 L 799 855 L 799 856 L 800 857 L 800 858 L 801 859 L 801 861 L 802 862 L 802 863 L 803 864 L 803 866 L 804 867 L 804 868 L 805 869 L 805 871 L 806 872 L 806 874 L 807 875 L 807 877 L 808 878 L 808 880 L 809 881 L 809 884 L 810 885 L 810 888 L 811 889 L 811 892 L 812 893 L 812 897 L 813 898 L 813 903 L 814 904 L 814 910 L 815 911 L 815 941 L 814 942 L 814 947 L 813 948 L 813 951 L 812 952 L 812 954 L 811 955 L 811 957 L 810 958 L 810 959 L 809 960 L 809 962 L 808 963 L 808 964 L 807 965 L 807 966 L 805 968 L 805 969 L 804 970 L 804 971 L 802 973 L 802 974 L 799 977 L 799 978 L 789 988 L 788 988 L 785 991 L 784 991 L 781 994 L 780 994 L 779 995 L 778 995 L 776 997 L 775 997 L 774 998 L 773 998 L 771 1000 L 770 1000 L 765 1005 L 765 1006 L 766 1006 L 767 1007 L 765 1009 L 765 1010 L 764 1011 L 768 1011 L 769 1010 L 770 1011 L 770 1012 L 769 1013 L 768 1013 L 767 1014 L 765 1014 L 764 1015 L 763 1015 L 769 1015 L 770 1016 L 775 1016 L 776 1015 L 778 1015 L 779 1014 L 781 1014 L 782 1013 L 783 1013 L 784 1012 L 785 1012 L 786 1011 L 787 1011 L 788 1010 L 789 1010 L 791 1008 L 792 1008 L 793 1007 L 794 1007 L 796 1005 L 797 1005 L 800 1002 L 801 1002 L 805 998 L 806 998 L 816 988 L 816 987 L 820 983 L 820 982 L 822 980 L 822 979 L 824 977 L 824 976 L 825 975 L 825 974 L 827 972 L 827 971 L 828 970 L 828 968 L 829 967 L 829 966 L 830 965 L 830 963 L 831 962 L 831 959 L 832 958 L 832 954 L 833 953 L 833 946 L 834 945 L 834 921 L 833 920 L 833 908 L 832 907 L 832 900 L 831 899 L 831 892 L 830 891 L 830 887 L 829 886 L 829 882 L 828 881 L 828 877 L 827 876 L 827 873 L 826 872 L 826 870 L 825 869 L 825 866 L 824 865 L 824 863 L 823 862 L 823 860 L 822 859 L 822 857 L 821 856 L 821 854 L 820 853 L 820 851 L 819 850 L 819 849 L 818 848 L 818 846 L 817 845 L 817 844 L 816 843 L 816 841 L 815 840 L 815 839 L 814 838 L 814 837 L 813 836 L 813 835 L 812 834 L 812 833 L 810 831 L 810 830 L 809 829 L 809 828 L 807 826 L 807 825 L 805 823 L 805 822 L 803 820 L 803 819 L 799 815 L 799 814 L 788 803 L 787 803 L 783 799 L 782 799 L 780 797 L 779 797 L 778 796 L 777 796 L 776 795 L 775 795 L 774 794 L 773 794 L 772 793 L 770 793 L 769 792 L 768 792 L 767 791 L 765 791 L 764 790 L 762 790 L 761 789 L 759 789 L 758 788 L 755 788 L 754 787 L 751 787 L 750 786 L 747 786 L 746 785 L 742 785 L 741 784 L 736 784 L 735 783 L 727 783 L 726 782 Z" fill="#FFFFFF"/>
      <animateTransform attributeName="transform"
                        attributeType="XML"
                        type="translate"
                        values="0 0; 11.25 18.13; -6.75 -10.877999999999998; 0 0"
                        dur="10.78s"
                        repeatCount="indefinite"
                        calcMode="spline"
                        keySplines="0.25 0.1 0.25 1; 0.25 0.1 0.25 1; 0.25 0.1 0.25 1" />
      <animateTransform attributeName="transform"
                        attributeType="XML"
                        type="rotate"
                        values="0; 1.13; -0.6779999999999999; 0"
                        dur="21.7s"
                        repeatCount="indefinite"
                        additive="sum"
                        calcMode="spline"
                        keySplines="0.25 0.1 0.25 1; 0.25 0.1 0.25 1; 0.25 0.1 0.25 1" />
    </g>
    

    <g id="g3" class="piece" transform="translate(0 0)">
      <path d="M 0 742 L 0 762 L 1 762 L 2 763 L 4 763 L 5 764 L 7 764 L 8 765 L 9 765 L 10 766 L 12 766 L 13 767 L 15 767 L 16 768 L 18 768 L 19 769 L 21 769 L 22 770 L 24 770 L 25 771 L 28 771 L 30 769 L 30 767 L 29 766 L 29 765 L 30 764 L 34 764 L 35 765 L 36 764 L 38 764 L 39 763 L 39 760 L 36 757 L 35 757 L 33 755 L 32 755 L 31 754 L 30 754 L 29 753 L 28 753 L 27 752 L 25 752 L 24 751 L 23 751 L 22 750 L 21 750 L 20 749 L 18 749 L 17 748 L 16 748 L 15 747 L 13 747 L 12 746 L 11 746 L 10 745 L 8 745 L 7 744 L 6 744 L 5 743 L 3 743 L 2 742 Z" fill="#FFFFFF"/>
      <animateTransform attributeName="transform"
                        attributeType="XML"
                        type="translate"
                        values="0 0; 19.08 11.29; -11.447999999999999 -6.773999999999999; 0 0"
                        dur="19.33s"
                        repeatCount="indefinite"
                        calcMode="spline"
                        keySplines="0.25 0.1 0.25 1; 0.25 0.1 0.25 1; 0.25 0.1 0.25 1" />
      <animateTransform attributeName="transform"
                        attributeType="XML"
                        type="rotate"
                        values="0; 3.95; -2.37; 0"
                        dur="10.12s"
                        repeatCount="indefinite"
                        additive="sum"
                        calcMode="spline"
                        keySplines="0.25 0.1 0.25 1; 0.25 0.1 0.25 1; 0.25 0.1 0.25 1" />
    </g>
    

    <g id="g4" class="piece" transform="translate(0 0)">
      <path d="M 290 602 L 290 603 L 291 604 L 291 605 L 290 606 L 288 604 L 287 604 L 286 603 L 285 604 L 286 605 L 286 608 L 287 609 L 287 612 L 288 613 L 288 615 L 289 616 L 289 618 L 290 619 L 290 620 L 291 621 L 291 622 L 292 623 L 292 624 L 294 626 L 294 627 L 297 630 L 297 631 L 300 634 L 300 635 L 303 638 L 303 639 L 304 640 L 304 641 L 305 642 L 305 643 L 306 644 L 306 645 L 307 646 L 307 647 L 308 648 L 308 650 L 309 651 L 309 652 L 310 653 L 310 655 L 311 656 L 311 659 L 312 660 L 312 663 L 313 664 L 313 668 L 310 671 L 309 671 L 295 685 L 295 686 L 290 691 L 290 692 L 286 696 L 286 697 L 283 700 L 283 701 L 281 703 L 281 704 L 279 706 L 279 707 L 277 709 L 277 710 L 275 712 L 275 713 L 273 715 L 273 716 L 272 717 L 272 718 L 271 719 L 271 720 L 269 722 L 269 723 L 268 724 L 268 725 L 267 726 L 267 727 L 266 728 L 266 729 L 265 730 L 265 731 L 264 732 L 264 733 L 263 734 L 263 735 L 261 737 L 261 739 L 260 740 L 260 741 L 259 742 L 259 743 L 258 744 L 258 745 L 257 746 L 257 747 L 256 748 L 256 750 L 255 751 L 255 752 L 254 753 L 254 754 L 253 755 L 253 757 L 252 758 L 252 759 L 251 760 L 251 762 L 250 763 L 250 765 L 249 766 L 249 767 L 248 768 L 248 770 L 247 771 L 247 773 L 246 774 L 246 776 L 245 777 L 245 779 L 244 780 L 244 783 L 243 784 L 243 786 L 242 787 L 242 790 L 241 791 L 241 795 L 240 796 L 240 800 L 239 801 L 239 806 L 238 807 L 238 812 L 237 813 L 237 818 L 236 819 L 236 824 L 235 825 L 235 829 L 234 830 L 232 830 L 231 829 L 230 829 L 229 828 L 228 828 L 227 827 L 225 827 L 224 826 L 223 826 L 222 825 L 220 825 L 219 824 L 216 824 L 215 823 L 212 823 L 211 822 L 208 822 L 207 821 L 203 821 L 202 820 L 198 820 L 197 819 L 192 819 L 191 818 L 178 818 L 177 817 L 175 817 L 174 818 L 166 818 L 165 819 L 164 819 L 164 820 L 168 824 L 167 825 L 161 825 L 162 825 L 164 827 L 165 827 L 166 828 L 167 828 L 169 830 L 170 830 L 171 831 L 172 831 L 173 832 L 174 832 L 175 833 L 176 833 L 177 834 L 179 834 L 180 835 L 182 835 L 183 836 L 185 836 L 186 837 L 188 837 L 189 838 L 192 838 L 193 839 L 196 839 L 197 840 L 201 840 L 202 841 L 205 841 L 206 842 L 209 842 L 210 843 L 213 843 L 214 844 L 216 844 L 217 845 L 219 845 L 220 846 L 221 846 L 222 847 L 224 847 L 225 848 L 226 848 L 227 849 L 228 849 L 229 850 L 230 850 L 231 851 L 232 851 L 234 853 L 235 853 L 236 854 L 237 854 L 238 855 L 239 855 L 241 857 L 242 857 L 243 858 L 244 858 L 245 859 L 249 859 L 250 858 L 251 858 L 254 855 L 254 853 L 255 852 L 255 850 L 256 849 L 256 842 L 257 841 L 257 835 L 258 834 L 258 828 L 259 827 L 259 823 L 260 822 L 260 820 L 261 819 L 264 822 L 264 823 L 266 825 L 266 826 L 268 828 L 268 829 L 271 832 L 271 833 L 274 836 L 274 837 L 277 840 L 277 841 L 281 845 L 281 846 L 284 849 L 284 850 L 289 855 L 289 856 L 294 861 L 294 862 L 301 869 L 301 870 L 310 879 L 310 880 L 312 882 L 312 883 L 310 885 L 310 886 L 306 890 L 306 891 L 303 894 L 303 895 L 300 898 L 300 899 L 298 901 L 298 902 L 296 904 L 296 905 L 295 906 L 295 907 L 294 908 L 294 909 L 293 910 L 293 912 L 292 913 L 292 915 L 291 916 L 291 920 L 290 921 L 290 939 L 291 940 L 291 955 L 290 956 L 290 965 L 289 966 L 289 970 L 288 971 L 288 975 L 287 976 L 287 979 L 286 980 L 286 982 L 285 983 L 286 982 L 286 981 L 287 980 L 288 980 L 289 981 L 289 982 L 288 983 L 288 984 L 287 985 L 288 985 L 292 981 L 293 982 L 293 983 L 292 984 L 292 985 L 291 986 L 291 987 L 294 984 L 294 983 L 295 982 L 296 982 L 296 981 L 298 979 L 298 978 L 299 977 L 299 975 L 300 974 L 300 972 L 301 971 L 301 969 L 302 968 L 302 966 L 303 965 L 303 963 L 304 962 L 304 961 L 305 960 L 305 958 L 306 957 L 306 956 L 307 955 L 307 954 L 308 953 L 308 952 L 316 944 L 317 944 L 319 942 L 320 942 L 321 941 L 323 941 L 324 940 L 326 940 L 327 939 L 338 939 L 339 940 L 343 940 L 344 941 L 347 941 L 348 942 L 355 942 L 356 943 L 357 943 L 358 942 L 365 942 L 366 941 L 370 941 L 371 940 L 372 940 L 373 939 L 375 939 L 376 938 L 377 938 L 378 937 L 379 937 L 380 936 L 381 936 L 382 935 L 383 935 L 385 933 L 386 933 L 389 930 L 390 930 L 397 923 L 397 922 L 400 919 L 400 918 L 403 915 L 403 914 L 404 913 L 404 912 L 405 911 L 405 910 L 406 909 L 406 908 L 407 907 L 407 906 L 408 905 L 408 904 L 409 903 L 409 901 L 410 900 L 410 898 L 411 897 L 411 893 L 412 892 L 412 880 L 410 880 L 408 882 L 407 881 L 407 876 L 407 877 L 404 880 L 403 879 L 403 877 L 402 877 L 402 879 L 401 880 L 401 882 L 400 883 L 400 884 L 399 885 L 399 886 L 398 887 L 398 888 L 397 889 L 397 890 L 396 891 L 396 892 L 394 894 L 394 895 L 392 897 L 392 898 L 390 900 L 390 901 L 386 905 L 385 904 L 384 904 L 383 903 L 382 903 L 381 902 L 380 902 L 378 900 L 377 900 L 371 894 L 370 894 L 361 885 L 360 885 L 345 870 L 344 870 L 325 851 L 325 850 L 311 836 L 311 835 L 306 830 L 306 829 L 303 826 L 303 825 L 300 822 L 300 821 L 298 819 L 298 818 L 297 817 L 297 816 L 295 814 L 295 813 L 294 812 L 294 811 L 293 810 L 293 809 L 292 808 L 292 806 L 291 805 L 291 804 L 290 803 L 290 802 L 289 801 L 289 799 L 288 798 L 288 797 L 287 796 L 287 794 L 286 793 L 286 790 L 285 789 L 285 786 L 284 785 L 284 781 L 283 780 L 283 774 L 282 773 L 282 761 L 283 760 L 283 754 L 284 753 L 284 750 L 285 749 L 285 746 L 286 745 L 286 743 L 287 742 L 287 740 L 288 739 L 288 738 L 289 737 L 289 735 L 290 734 L 290 733 L 291 732 L 291 731 L 292 730 L 292 729 L 293 728 L 293 727 L 295 725 L 295 724 L 297 722 L 297 721 L 300 718 L 300 717 L 313 704 L 314 704 L 317 701 L 318 701 L 320 699 L 321 699 L 322 698 L 323 698 L 324 697 L 325 697 L 326 696 L 327 696 L 328 695 L 330 695 L 331 694 L 332 694 L 333 693 L 336 693 L 337 692 L 341 692 L 342 691 L 352 691 L 353 692 L 357 692 L 358 693 L 360 693 L 361 694 L 363 694 L 364 695 L 365 695 L 366 696 L 367 696 L 368 697 L 369 697 L 370 698 L 371 698 L 373 700 L 374 700 L 376 702 L 377 702 L 381 706 L 382 706 L 392 716 L 392 717 L 395 720 L 395 721 L 397 723 L 397 724 L 399 726 L 399 727 L 400 728 L 400 729 L 401 730 L 401 731 L 402 732 L 402 733 L 403 734 L 403 736 L 404 737 L 404 740 L 405 741 L 405 744 L 406 745 L 406 765 L 405 766 L 405 770 L 404 771 L 404 774 L 403 775 L 403 777 L 402 778 L 402 780 L 401 781 L 401 782 L 400 783 L 400 785 L 399 786 L 399 787 L 398 788 L 398 789 L 397 790 L 397 791 L 395 793 L 395 794 L 394 795 L 394 796 L 393 797 L 393 798 L 392 799 L 392 800 L 391 801 L 391 802 L 390 803 L 390 804 L 389 805 L 389 806 L 390 807 L 390 808 L 389 809 L 389 810 L 391 808 L 392 809 L 392 810 L 391 811 L 391 812 L 390 813 L 392 811 L 393 811 L 394 810 L 395 811 L 395 812 L 396 811 L 397 811 L 398 810 L 401 810 L 403 808 L 404 808 L 411 801 L 411 800 L 414 797 L 414 796 L 416 794 L 416 793 L 417 792 L 417 791 L 418 790 L 418 789 L 419 788 L 419 787 L 420 786 L 420 784 L 421 783 L 421 781 L 422 780 L 422 778 L 423 777 L 423 774 L 424 773 L 424 767 L 425 766 L 425 752 L 424 751 L 424 743 L 423 742 L 423 738 L 422 737 L 422 734 L 421 733 L 421 730 L 420 729 L 420 727 L 419 726 L 419 725 L 418 724 L 418 722 L 417 721 L 417 720 L 416 719 L 416 718 L 415 717 L 415 716 L 414 715 L 414 714 L 412 712 L 412 711 L 411 710 L 411 709 L 409 707 L 409 706 L 405 702 L 405 701 L 396 692 L 395 692 L 392 689 L 391 689 L 389 687 L 388 687 L 386 685 L 385 685 L 384 684 L 383 684 L 382 683 L 381 683 L 380 682 L 378 682 L 377 681 L 376 681 L 375 680 L 373 680 L 372 679 L 369 679 L 368 678 L 365 678 L 364 677 L 359 677 L 358 676 L 339 676 L 338 675 L 338 674 L 337 673 L 337 671 L 336 670 L 336 669 L 338 667 L 342 667 L 343 666 L 348 666 L 349 665 L 354 665 L 355 664 L 362 664 L 363 663 L 384 663 L 385 664 L 389 664 L 390 665 L 392 665 L 393 666 L 395 666 L 396 667 L 398 667 L 399 668 L 400 668 L 401 669 L 402 669 L 403 670 L 404 670 L 406 672 L 407 672 L 409 674 L 410 674 L 413 677 L 414 677 L 428 691 L 428 692 L 432 696 L 432 697 L 434 699 L 434 700 L 436 702 L 436 703 L 437 704 L 437 705 L 438 706 L 438 707 L 439 708 L 439 709 L 440 710 L 440 711 L 441 712 L 441 713 L 442 714 L 442 715 L 443 716 L 443 718 L 444 719 L 444 720 L 445 721 L 445 724 L 446 725 L 446 727 L 447 728 L 447 731 L 448 732 L 448 736 L 449 737 L 449 742 L 450 743 L 450 752 L 451 753 L 451 763 L 450 764 L 450 774 L 449 775 L 449 779 L 448 780 L 448 784 L 447 785 L 447 787 L 446 788 L 446 790 L 445 791 L 445 793 L 444 794 L 444 795 L 443 796 L 443 797 L 442 798 L 442 799 L 441 800 L 441 801 L 440 802 L 440 803 L 439 804 L 439 805 L 437 807 L 437 808 L 434 811 L 434 812 L 419 827 L 419 828 L 416 831 L 416 832 L 417 831 L 418 832 L 418 833 L 416 835 L 419 835 L 420 836 L 417 839 L 418 839 L 419 838 L 422 838 L 423 837 L 427 837 L 428 836 L 429 836 L 430 835 L 431 835 L 433 833 L 434 833 L 442 825 L 442 824 L 445 821 L 445 820 L 447 818 L 447 817 L 448 816 L 448 815 L 449 814 L 449 813 L 450 812 L 450 811 L 451 810 L 451 809 L 452 808 L 452 807 L 453 806 L 453 805 L 454 804 L 454 802 L 455 801 L 455 800 L 456 799 L 456 797 L 457 796 L 457 794 L 458 793 L 458 791 L 459 790 L 459 788 L 460 787 L 460 785 L 461 784 L 461 782 L 462 781 L 462 778 L 463 777 L 463 774 L 464 773 L 464 769 L 465 768 L 465 762 L 466 761 L 466 743 L 465 742 L 465 734 L 464 733 L 464 728 L 463 727 L 463 724 L 462 723 L 462 720 L 461 719 L 461 717 L 460 716 L 460 714 L 459 713 L 459 711 L 458 710 L 458 708 L 457 707 L 457 706 L 456 705 L 456 704 L 455 703 L 455 701 L 454 700 L 454 699 L 453 698 L 453 697 L 452 696 L 452 695 L 450 693 L 450 692 L 449 691 L 449 690 L 448 689 L 448 688 L 446 686 L 446 685 L 444 683 L 444 682 L 442 680 L 442 679 L 439 676 L 439 675 L 433 669 L 433 668 L 431 666 L 430 666 L 424 660 L 423 660 L 421 658 L 420 658 L 418 656 L 417 656 L 415 654 L 414 654 L 413 653 L 412 653 L 411 652 L 410 652 L 409 651 L 408 651 L 407 650 L 405 650 L 404 649 L 403 649 L 402 648 L 400 648 L 399 647 L 396 647 L 395 646 L 392 646 L 391 645 L 385 645 L 384 644 L 356 644 L 355 645 L 349 645 L 348 646 L 344 646 L 343 647 L 339 647 L 338 648 L 335 648 L 334 649 L 332 649 L 331 650 L 330 650 L 328 648 L 328 647 L 327 646 L 327 645 L 326 644 L 326 643 L 325 642 L 325 641 L 324 640 L 324 638 L 323 637 L 323 636 L 321 634 L 321 633 L 320 632 L 320 631 L 319 630 L 319 629 L 318 628 L 318 627 L 317 626 L 317 625 L 316 624 L 316 623 L 314 621 L 314 620 L 313 619 L 313 618 L 312 617 L 312 616 L 310 614 L 310 613 L 307 610 L 307 609 L 303 605 L 302 605 L 301 604 L 300 604 L 299 605 L 298 605 L 297 604 L 296 604 L 295 603 L 294 603 L 293 602 Z" fill="#FFFFFF"/>
      <animateTransform attributeName="transform"
                        attributeType="XML"
                        type="translate"
                        values="0 0; 25.34 22.76; -15.203999999999999 -13.656; 0 0"
                        dur="10.18s"
                        repeatCount="indefinite"
                        calcMode="spline"
                        keySplines="0.25 0.1 0.25 1; 0.25 0.1 0.25 1; 0.25 0.1 0.25 1" />
      <animateTransform attributeName="transform"
                        attributeType="XML"
                        type="rotate"
                        values="0; 2.7; -1.62; 0"
                        dur="27.23s"
                        repeatCount="indefinite"
                        additive="sum"
                        calcMode="spline"
                        keySplines="0.25 0.1 0.25 1; 0.25 0.1 0.25 1; 0.25 0.1 0.25 1" />
    </g>
    

    <g id="g5" class="piece" transform="translate(0 0)">
      <path d="M 105 511 L 104 512 L 99 512 L 98 513 L 95 513 L 94 514 L 93 514 L 92 515 L 91 515 L 90 516 L 89 516 L 88 517 L 87 517 L 84 520 L 83 520 L 76 527 L 76 528 L 73 531 L 73 532 L 72 533 L 72 534 L 70 536 L 70 537 L 69 538 L 69 540 L 68 541 L 68 542 L 67 543 L 67 546 L 66 547 L 66 551 L 65 552 L 65 561 L 66 562 L 66 567 L 67 568 L 67 571 L 68 572 L 68 573 L 69 574 L 69 576 L 70 577 L 70 578 L 71 579 L 71 580 L 72 581 L 72 582 L 74 584 L 74 585 L 78 589 L 78 590 L 81 593 L 82 593 L 86 597 L 87 597 L 88 598 L 89 598 L 91 600 L 92 600 L 93 601 L 95 601 L 96 602 L 99 602 L 100 603 L 116 603 L 117 602 L 120 602 L 121 601 L 123 601 L 124 600 L 125 600 L 126 599 L 127 599 L 128 598 L 129 598 L 130 597 L 132 599 L 132 600 L 133 601 L 133 602 L 134 603 L 134 604 L 136 606 L 136 607 L 137 608 L 137 609 L 139 611 L 139 612 L 141 614 L 141 615 L 143 617 L 143 618 L 145 620 L 145 621 L 148 624 L 148 625 L 152 629 L 152 630 L 156 634 L 156 635 L 159 638 L 163 638 L 165 636 L 166 636 L 169 633 L 170 633 L 173 630 L 174 630 L 178 626 L 179 626 L 184 621 L 185 621 L 192 614 L 193 614 L 199 608 L 199 607 L 202 604 L 202 603 L 205 600 L 204 600 L 202 602 L 201 601 L 201 600 L 203 598 L 201 598 L 200 597 L 201 596 L 199 596 L 198 597 L 197 597 L 195 595 L 194 596 L 193 596 L 191 598 L 190 598 L 184 604 L 183 604 L 178 609 L 177 609 L 171 615 L 170 615 L 165 620 L 164 620 L 163 619 L 163 618 L 159 614 L 159 613 L 156 610 L 156 609 L 153 606 L 153 605 L 151 603 L 151 602 L 150 601 L 150 600 L 148 598 L 148 597 L 146 595 L 146 594 L 145 593 L 145 592 L 144 591 L 144 590 L 143 589 L 143 588 L 150 581 L 150 580 L 154 576 L 154 575 L 156 573 L 156 572 L 158 570 L 158 569 L 160 567 L 160 565 L 161 564 L 161 563 L 162 562 L 162 560 L 163 559 L 163 555 L 164 554 L 164 547 L 163 546 L 163 542 L 162 541 L 162 539 L 161 538 L 161 537 L 160 536 L 160 535 L 159 534 L 159 533 L 157 531 L 157 530 L 149 522 L 148 522 L 146 520 L 145 520 L 144 519 L 143 519 L 141 517 L 140 517 L 139 516 L 137 516 L 136 515 L 135 515 L 134 514 L 132 514 L 131 513 L 129 513 L 128 512 L 124 512 L 123 511 Z" fill="#FFFFFF"/>
      <animateTransform attributeName="transform"
                        attributeType="XML"
                        type="translate"
                        values="0 0; 14.08 8.23; -8.448 -4.938; 0 0"
                        dur="19.86s"
                        repeatCount="indefinite"
                        calcMode="spline"
                        keySplines="0.25 0.1 0.25 1; 0.25 0.1 0.25 1; 0.25 0.1 0.25 1" />
      <animateTransform attributeName="transform"
                        attributeType="XML"
                        type="rotate"
                        values="0; 1.48; -0.888; 0"
                        dur="20.87s"
                        repeatCount="indefinite"
                        additive="sum"
                        calcMode="spline"
                        keySplines="0.25 0.1 0.25 1; 0.25 0.1 0.25 1; 0.25 0.1 0.25 1" />
    </g>
    

    <g id="g6" class="piece" transform="translate(0 0)">
      <path d="M 734 444 L 733 445 L 732 445 L 730 447 L 729 447 L 717 459 L 717 460 L 712 465 L 712 466 L 710 468 L 710 469 L 709 470 L 709 473 L 708 474 L 709 475 L 709 476 L 710 477 L 711 477 L 712 476 L 714 476 L 715 475 L 716 475 L 721 470 L 721 469 L 726 464 L 726 463 L 729 460 L 729 459 L 732 456 L 732 455 L 735 452 L 735 451 L 737 449 L 737 447 L 738 446 L 737 446 L 736 445 L 736 444 Z" fill="#FFFFFF"/>
      <animateTransform attributeName="transform"
                        attributeType="XML"
                        type="translate"
                        values="0 0; 25.37 23.51; -15.222 -14.106; 0 0"
                        dur="21.62s"
                        repeatCount="indefinite"
                        calcMode="spline"
                        keySplines="0.25 0.1 0.25 1; 0.25 0.1 0.25 1; 0.25 0.1 0.25 1" />
      <animateTransform attributeName="transform"
                        attributeType="XML"
                        type="rotate"
                        values="0; 3.68; -2.208; 0"
                        dur="16.81s"
                        repeatCount="indefinite"
                        additive="sum"
                        calcMode="spline"
                        keySplines="0.25 0.1 0.25 1; 0.25 0.1 0.25 1; 0.25 0.1 0.25 1" />
    </g>
    

    <g id="g7" class="piece" transform="translate(0 0)">
      <path d="M 598 435 L 597 436 L 595 436 L 594 437 L 593 437 L 592 438 L 591 438 L 590 439 L 589 439 L 584 444 L 584 445 L 582 447 L 582 449 L 581 450 L 581 452 L 580 453 L 580 456 L 579 457 L 579 462 L 580 463 L 580 467 L 581 468 L 581 469 L 582 470 L 582 471 L 585 474 L 585 475 L 589 479 L 590 479 L 594 483 L 595 483 L 598 486 L 599 486 L 601 488 L 602 488 L 605 491 L 606 491 L 608 493 L 609 493 L 612 496 L 613 496 L 622 505 L 622 506 L 623 507 L 623 508 L 624 509 L 624 510 L 625 511 L 625 521 L 624 522 L 624 523 L 623 524 L 623 525 L 622 526 L 622 527 L 621 528 L 621 529 L 612 538 L 611 538 L 609 540 L 608 540 L 607 541 L 606 541 L 605 542 L 604 542 L 603 543 L 602 543 L 601 544 L 600 544 L 599 545 L 597 545 L 596 546 L 594 546 L 593 547 L 590 547 L 589 548 L 584 548 L 583 549 L 575 549 L 574 550 L 571 550 L 570 549 L 565 549 L 564 548 L 562 548 L 561 547 L 560 547 L 558 545 L 557 545 L 550 538 L 550 537 L 548 535 L 548 534 L 547 533 L 547 532 L 546 531 L 546 529 L 545 528 L 545 517 L 546 516 L 546 513 L 547 512 L 547 509 L 548 508 L 548 506 L 549 505 L 549 503 L 550 502 L 550 500 L 551 499 L 551 497 L 552 496 L 552 495 L 553 494 L 553 492 L 554 491 L 554 490 L 555 489 L 555 488 L 556 487 L 556 485 L 557 484 L 557 482 L 558 481 L 558 479 L 559 478 L 559 474 L 560 473 L 560 459 L 559 458 L 559 455 L 558 454 L 558 453 L 557 452 L 557 451 L 556 450 L 556 449 L 553 446 L 552 446 L 550 444 L 548 444 L 547 443 L 540 443 L 539 444 L 536 444 L 535 445 L 532 445 L 531 446 L 530 446 L 529 447 L 528 447 L 527 448 L 526 448 L 522 452 L 522 453 L 519 456 L 519 457 L 517 459 L 517 460 L 515 462 L 515 463 L 513 465 L 513 466 L 512 467 L 512 468 L 511 469 L 511 470 L 510 471 L 510 478 L 512 480 L 515 480 L 516 479 L 517 479 L 524 472 L 524 471 L 528 467 L 528 466 L 538 456 L 539 456 L 540 455 L 544 455 L 547 458 L 547 459 L 548 460 L 548 470 L 547 471 L 547 473 L 546 474 L 546 476 L 545 477 L 545 478 L 544 479 L 544 481 L 543 482 L 543 483 L 542 484 L 542 486 L 541 487 L 541 489 L 540 490 L 540 491 L 539 492 L 539 494 L 538 495 L 538 497 L 537 498 L 537 500 L 536 501 L 536 504 L 535 505 L 535 507 L 534 508 L 534 510 L 533 511 L 533 514 L 532 515 L 532 520 L 531 521 L 531 533 L 532 534 L 532 537 L 533 538 L 533 540 L 534 541 L 534 543 L 535 544 L 535 545 L 537 547 L 537 548 L 539 550 L 539 551 L 542 554 L 543 554 L 546 557 L 547 557 L 549 559 L 550 559 L 551 560 L 552 560 L 553 561 L 555 561 L 556 562 L 558 562 L 559 563 L 563 563 L 564 564 L 584 564 L 585 565 L 585 566 L 586 567 L 586 570 L 587 571 L 587 573 L 588 574 L 588 576 L 589 577 L 589 579 L 590 580 L 589 581 L 588 581 L 587 582 L 582 582 L 581 583 L 577 583 L 576 584 L 571 584 L 570 585 L 567 585 L 566 586 L 563 586 L 562 587 L 561 587 L 560 588 L 559 588 L 555 592 L 555 593 L 554 594 L 554 596 L 553 597 L 553 608 L 554 609 L 554 613 L 555 614 L 555 617 L 556 618 L 556 621 L 557 622 L 557 626 L 558 627 L 558 630 L 559 631 L 559 633 L 560 634 L 560 636 L 561 637 L 561 638 L 564 641 L 570 641 L 573 638 L 573 629 L 572 628 L 572 625 L 571 624 L 571 621 L 570 620 L 570 617 L 569 616 L 569 613 L 568 612 L 568 608 L 567 607 L 567 602 L 569 600 L 571 600 L 572 599 L 574 599 L 575 598 L 578 598 L 579 597 L 581 597 L 582 596 L 585 596 L 586 595 L 588 595 L 589 594 L 591 594 L 592 593 L 593 593 L 596 596 L 596 598 L 597 599 L 597 601 L 598 602 L 598 604 L 599 605 L 599 607 L 600 608 L 600 611 L 601 612 L 601 614 L 602 615 L 602 618 L 603 619 L 603 621 L 604 622 L 604 625 L 605 626 L 605 627 L 607 629 L 608 629 L 609 630 L 610 630 L 611 629 L 612 629 L 613 628 L 614 628 L 614 627 L 616 625 L 616 623 L 617 622 L 617 619 L 616 618 L 616 613 L 615 612 L 615 609 L 614 608 L 614 605 L 613 604 L 613 601 L 612 600 L 612 597 L 611 596 L 611 592 L 610 591 L 610 590 L 612 588 L 613 588 L 615 586 L 616 586 L 617 585 L 618 585 L 619 584 L 620 584 L 621 583 L 622 583 L 623 582 L 624 582 L 625 581 L 626 581 L 627 580 L 628 580 L 629 579 L 631 579 L 632 578 L 633 578 L 634 577 L 635 577 L 636 576 L 639 576 L 640 577 L 640 580 L 641 581 L 641 585 L 642 586 L 642 590 L 643 591 L 643 595 L 644 596 L 644 599 L 645 600 L 645 604 L 646 605 L 646 610 L 647 611 L 647 613 L 649 615 L 650 615 L 651 616 L 655 616 L 656 615 L 657 615 L 658 614 L 658 613 L 659 612 L 659 604 L 658 603 L 658 599 L 657 598 L 657 595 L 656 594 L 656 591 L 655 590 L 655 585 L 654 584 L 654 579 L 653 578 L 653 573 L 652 572 L 652 569 L 651 568 L 651 567 L 647 563 L 646 563 L 645 562 L 636 562 L 635 563 L 633 563 L 632 564 L 630 564 L 629 565 L 627 565 L 626 566 L 624 566 L 623 567 L 622 567 L 621 568 L 619 568 L 618 569 L 617 569 L 616 570 L 615 570 L 614 571 L 612 571 L 611 572 L 610 572 L 609 573 L 608 573 L 607 574 L 606 574 L 604 572 L 604 570 L 603 569 L 603 567 L 602 566 L 602 564 L 601 563 L 601 561 L 600 560 L 601 559 L 602 559 L 603 558 L 605 558 L 606 557 L 607 557 L 608 556 L 609 556 L 610 555 L 611 555 L 612 554 L 613 554 L 614 553 L 615 553 L 616 552 L 617 552 L 619 550 L 620 550 L 623 547 L 624 547 L 632 539 L 632 538 L 634 536 L 634 535 L 635 534 L 635 533 L 637 531 L 637 529 L 638 528 L 638 526 L 639 525 L 639 522 L 640 521 L 640 511 L 639 510 L 639 507 L 638 506 L 638 504 L 637 503 L 637 502 L 636 501 L 636 500 L 634 498 L 634 497 L 630 493 L 630 492 L 624 486 L 623 486 L 620 483 L 619 483 L 617 481 L 616 481 L 614 479 L 613 479 L 611 477 L 610 477 L 609 476 L 608 476 L 606 474 L 605 474 L 602 471 L 601 471 L 598 468 L 598 467 L 595 464 L 595 462 L 594 461 L 594 456 L 595 455 L 595 454 L 596 453 L 596 452 L 598 450 L 599 450 L 601 448 L 602 448 L 603 447 L 609 447 L 610 448 L 611 448 L 614 451 L 615 451 L 620 456 L 622 456 L 623 457 L 624 456 L 625 456 L 626 455 L 626 454 L 627 453 L 627 450 L 626 449 L 626 448 L 622 444 L 621 444 L 618 441 L 617 441 L 615 439 L 614 439 L 613 438 L 612 438 L 611 437 L 610 437 L 609 436 L 606 436 L 605 435 Z" fill="#FFFFFF"/>
      <animateTransform attributeName="transform"
                        attributeType="XML"
                        type="translate"
                        values="0 0; 19.25 25.91; -11.549999999999999 -15.546; 0 0"
                        dur="20.06s"
                        repeatCount="indefinite"
                        calcMode="spline"
                        keySplines="0.25 0.1 0.25 1; 0.25 0.1 0.25 1; 0.25 0.1 0.25 1" />
      <animateTransform attributeName="transform"
                        attributeType="XML"
                        type="rotate"
                        values="0; 4.09; -2.4539999999999997; 0"
                        dur="20.39s"
                        repeatCount="indefinite"
                        additive="sum"
                        calcMode="spline"
                        keySplines="0.25 0.1 0.25 1; 0.25 0.1 0.25 1; 0.25 0.1 0.25 1" />
    </g>
    

    <g id="g8" class="piece" transform="translate(0 0)">
      <path d="M 374 290 L 373 291 L 371 291 L 370 292 L 369 292 L 368 293 L 367 293 L 366 294 L 365 294 L 363 296 L 362 296 L 359 299 L 358 299 L 350 307 L 350 308 L 349 309 L 349 310 L 348 311 L 348 312 L 347 313 L 347 317 L 346 318 L 346 324 L 347 325 L 347 328 L 348 329 L 350 327 L 352 329 L 352 330 L 352 329 L 354 327 L 356 329 L 356 328 L 357 327 L 357 323 L 358 322 L 358 319 L 359 318 L 359 317 L 360 316 L 360 315 L 361 314 L 361 313 L 363 311 L 363 310 L 365 308 L 366 308 L 368 306 L 369 306 L 370 305 L 371 305 L 372 304 L 378 304 L 379 305 L 380 305 L 384 309 L 384 310 L 385 311 L 385 312 L 386 313 L 386 315 L 387 316 L 387 319 L 388 320 L 388 341 L 387 342 L 385 342 L 384 343 L 381 343 L 380 344 L 378 344 L 377 345 L 375 345 L 374 346 L 373 346 L 372 347 L 370 347 L 368 349 L 367 349 L 366 350 L 365 350 L 362 353 L 361 353 L 350 364 L 350 365 L 347 368 L 347 369 L 345 371 L 345 372 L 344 373 L 344 374 L 343 375 L 343 376 L 342 377 L 342 378 L 341 379 L 341 380 L 340 381 L 340 383 L 339 384 L 339 387 L 338 388 L 338 392 L 337 393 L 337 399 L 336 400 L 335 400 L 334 399 L 329 399 L 328 398 L 309 398 L 308 399 L 303 399 L 302 400 L 299 400 L 298 401 L 297 401 L 296 402 L 295 402 L 294 403 L 293 403 L 291 405 L 290 405 L 285 410 L 285 411 L 283 413 L 283 414 L 282 415 L 282 416 L 281 417 L 281 419 L 280 420 L 280 434 L 281 435 L 281 436 L 283 438 L 286 438 L 287 439 L 288 439 L 290 437 L 291 437 L 293 435 L 293 424 L 294 423 L 294 420 L 295 419 L 295 418 L 301 412 L 302 412 L 303 411 L 304 411 L 305 410 L 323 410 L 324 411 L 330 411 L 331 412 L 336 412 L 338 414 L 338 417 L 339 418 L 339 420 L 340 421 L 340 423 L 341 424 L 341 425 L 342 426 L 342 427 L 344 429 L 344 430 L 345 431 L 345 432 L 348 435 L 348 436 L 356 444 L 357 444 L 359 446 L 360 446 L 362 448 L 363 448 L 365 450 L 366 450 L 367 451 L 369 451 L 370 452 L 372 452 L 373 453 L 376 453 L 377 454 L 379 454 L 380 455 L 381 455 L 382 456 L 382 487 L 381 488 L 381 490 L 380 491 L 369 491 L 368 490 L 339 490 L 338 491 L 336 491 L 335 492 L 334 492 L 332 494 L 332 496 L 331 497 L 331 500 L 330 501 L 330 508 L 329 509 L 329 523 L 328 524 L 328 539 L 327 540 L 327 546 L 328 547 L 328 548 L 328 547 L 329 546 L 330 546 L 332 548 L 332 549 L 332 548 L 334 546 L 335 546 L 336 547 L 337 547 L 337 546 L 338 545 L 338 543 L 339 542 L 339 534 L 340 533 L 340 513 L 341 512 L 341 508 L 345 504 L 380 504 L 381 505 L 381 509 L 380 510 L 380 517 L 379 518 L 379 529 L 378 530 L 378 539 L 379 540 L 379 543 L 381 543 L 381 542 L 382 541 L 383 542 L 385 540 L 386 541 L 386 544 L 387 544 L 387 542 L 388 541 L 388 539 L 389 538 L 389 531 L 390 530 L 390 522 L 391 521 L 391 510 L 392 509 L 392 506 L 393 505 L 396 505 L 397 504 L 408 504 L 409 503 L 423 503 L 424 504 L 428 504 L 430 506 L 430 519 L 429 520 L 429 529 L 428 530 L 428 538 L 427 539 L 427 542 L 428 543 L 428 545 L 428 544 L 429 543 L 431 545 L 431 546 L 432 546 L 432 542 L 434 540 L 435 541 L 435 545 L 435 544 L 436 543 L 436 541 L 437 540 L 437 537 L 438 536 L 438 532 L 439 531 L 439 526 L 440 525 L 440 519 L 441 518 L 441 499 L 440 498 L 440 497 L 439 496 L 439 495 L 436 492 L 435 492 L 434 491 L 430 491 L 429 490 L 417 490 L 416 491 L 399 491 L 398 492 L 395 492 L 394 491 L 394 474 L 395 473 L 395 454 L 396 453 L 397 453 L 398 452 L 400 452 L 401 451 L 403 451 L 404 450 L 406 450 L 407 449 L 408 449 L 409 448 L 410 448 L 411 447 L 412 447 L 413 446 L 414 446 L 415 445 L 416 445 L 418 443 L 419 443 L 423 439 L 424 439 L 429 434 L 429 433 L 433 429 L 433 428 L 436 425 L 436 424 L 437 423 L 437 422 L 438 421 L 438 420 L 440 418 L 440 416 L 441 415 L 441 414 L 442 413 L 442 412 L 444 410 L 452 410 L 453 409 L 462 409 L 463 408 L 467 408 L 468 407 L 472 407 L 473 406 L 475 406 L 476 405 L 478 405 L 479 404 L 481 404 L 482 403 L 483 403 L 484 402 L 485 402 L 489 398 L 489 397 L 490 396 L 490 387 L 489 386 L 489 384 L 488 383 L 488 381 L 487 380 L 487 379 L 486 378 L 486 377 L 485 376 L 485 375 L 484 374 L 484 373 L 483 372 L 483 371 L 481 369 L 481 368 L 480 367 L 480 366 L 479 365 L 479 364 L 478 363 L 478 362 L 477 361 L 477 360 L 477 362 L 476 363 L 475 363 L 474 362 L 474 363 L 473 364 L 472 364 L 471 363 L 470 363 L 471 364 L 469 366 L 470 367 L 470 369 L 471 370 L 471 372 L 472 373 L 472 375 L 473 376 L 473 378 L 474 379 L 474 380 L 475 381 L 475 382 L 476 383 L 476 385 L 477 386 L 477 388 L 476 389 L 476 390 L 473 393 L 472 393 L 471 394 L 469 394 L 468 395 L 465 395 L 464 396 L 447 396 L 446 395 L 446 393 L 445 392 L 446 391 L 446 390 L 445 389 L 445 381 L 444 380 L 444 377 L 443 376 L 443 373 L 442 372 L 442 371 L 441 370 L 441 368 L 440 367 L 440 366 L 439 365 L 439 364 L 437 362 L 437 361 L 436 360 L 436 359 L 427 350 L 426 350 L 423 347 L 422 347 L 421 346 L 420 346 L 419 345 L 418 345 L 417 344 L 415 344 L 414 343 L 412 343 L 411 342 L 408 342 L 407 341 L 402 341 L 401 340 L 401 338 L 400 337 L 400 333 L 399 332 L 399 320 L 400 319 L 400 316 L 402 314 L 402 313 L 407 308 L 408 308 L 410 306 L 411 306 L 412 305 L 416 305 L 422 311 L 422 312 L 423 313 L 423 314 L 425 316 L 425 317 L 428 320 L 429 320 L 430 321 L 435 321 L 437 319 L 437 316 L 436 315 L 436 314 L 435 313 L 435 312 L 433 310 L 433 309 L 432 308 L 432 307 L 431 306 L 431 305 L 430 304 L 430 303 L 429 302 L 429 301 L 427 299 L 427 298 L 426 297 L 426 296 L 422 292 L 421 292 L 420 291 L 413 291 L 412 292 L 409 292 L 408 293 L 407 293 L 406 294 L 405 294 L 403 296 L 402 296 L 397 301 L 397 302 L 396 303 L 396 304 L 395 305 L 394 305 L 393 304 L 393 303 L 390 300 L 390 299 L 382 291 L 380 291 L 379 290 Z" fill="#FFFFFF"/>
      <animateTransform attributeName="transform"
                        attributeType="XML"
                        type="translate"
                        values="0 0; 22.91 7.1; -13.746 -4.26; 0 0"
                        dur="12.05s"
                        repeatCount="indefinite"
                        calcMode="spline"
                        keySplines="0.25 0.1 0.25 1; 0.25 0.1 0.25 1; 0.25 0.1 0.25 1" />
      <animateTransform attributeName="transform"
                        attributeType="XML"
                        type="rotate"
                        values="0; 2.14; -1.284; 0"
                        dur="11.44s"
                        repeatCount="indefinite"
                        additive="sum"
                        calcMode="spline"
                        keySplines="0.25 0.1 0.25 1; 0.25 0.1 0.25 1; 0.25 0.1 0.25 1" />
    </g>
    

    <g id="g9" class="piece" transform="translate(0 0)">
      <path d="M 1001 264 L 1000 265 L 991 265 L 990 266 L 985 266 L 984 267 L 980 267 L 979 268 L 977 268 L 976 269 L 973 269 L 972 270 L 971 270 L 970 271 L 968 271 L 967 272 L 966 272 L 965 273 L 963 273 L 962 274 L 961 274 L 960 275 L 959 275 L 958 276 L 957 276 L 956 277 L 955 277 L 953 279 L 952 279 L 951 280 L 950 280 L 948 282 L 947 282 L 944 285 L 943 285 L 940 288 L 939 288 L 933 294 L 932 294 L 928 298 L 928 299 L 921 306 L 921 307 L 918 310 L 918 311 L 916 313 L 916 314 L 914 316 L 914 317 L 913 318 L 913 319 L 912 320 L 912 321 L 910 323 L 910 325 L 909 326 L 909 327 L 908 328 L 908 329 L 907 330 L 907 332 L 906 333 L 906 335 L 905 336 L 905 339 L 904 340 L 904 344 L 903 345 L 903 351 L 902 352 L 902 364 L 903 365 L 903 371 L 902 372 L 901 372 L 900 373 L 899 373 L 897 375 L 896 375 L 895 376 L 894 376 L 893 377 L 892 377 L 891 378 L 890 378 L 889 379 L 888 379 L 887 380 L 886 380 L 885 381 L 884 381 L 883 382 L 881 382 L 880 383 L 879 383 L 878 384 L 877 384 L 876 385 L 875 385 L 874 386 L 872 386 L 871 387 L 870 387 L 869 388 L 868 388 L 867 389 L 865 389 L 864 390 L 863 390 L 862 391 L 860 391 L 859 392 L 858 392 L 857 393 L 855 393 L 854 394 L 852 394 L 851 395 L 850 395 L 849 396 L 847 396 L 846 397 L 845 397 L 844 398 L 843 398 L 842 397 L 842 394 L 841 393 L 841 390 L 840 389 L 840 386 L 839 385 L 839 382 L 838 381 L 838 379 L 837 378 L 837 376 L 836 375 L 836 373 L 835 372 L 835 368 L 836 367 L 836 362 L 837 361 L 837 342 L 836 341 L 836 336 L 835 335 L 835 332 L 834 331 L 834 329 L 833 328 L 833 326 L 832 325 L 832 324 L 831 323 L 831 322 L 830 321 L 830 320 L 829 319 L 829 318 L 828 317 L 828 316 L 826 314 L 826 313 L 824 311 L 824 310 L 815 301 L 814 301 L 812 299 L 811 299 L 810 298 L 809 298 L 808 297 L 806 297 L 805 296 L 788 296 L 787 297 L 784 297 L 783 298 L 781 298 L 780 299 L 779 299 L 778 300 L 777 300 L 776 301 L 775 301 L 773 303 L 772 303 L 766 309 L 766 310 L 764 312 L 764 313 L 763 314 L 763 315 L 762 316 L 762 317 L 761 318 L 761 320 L 760 321 L 760 325 L 759 326 L 759 337 L 760 338 L 760 342 L 761 343 L 761 345 L 762 346 L 762 348 L 763 349 L 763 350 L 764 351 L 764 352 L 766 354 L 766 355 L 768 357 L 768 358 L 776 366 L 777 366 L 779 368 L 780 368 L 781 369 L 782 369 L 783 370 L 784 370 L 785 371 L 786 371 L 787 372 L 788 372 L 789 373 L 791 373 L 792 374 L 796 374 L 797 375 L 818 375 L 819 374 L 823 374 L 824 375 L 824 376 L 825 377 L 825 379 L 826 380 L 826 383 L 827 384 L 827 387 L 828 388 L 828 391 L 829 392 L 829 395 L 830 396 L 830 401 L 828 403 L 827 403 L 826 404 L 824 404 L 823 405 L 821 405 L 820 406 L 818 406 L 817 407 L 815 407 L 814 408 L 813 408 L 812 409 L 810 409 L 809 410 L 808 410 L 807 411 L 805 411 L 804 412 L 803 412 L 802 413 L 801 413 L 800 414 L 799 414 L 798 415 L 797 415 L 796 416 L 794 416 L 793 417 L 788 417 L 787 416 L 776 416 L 775 417 L 769 417 L 768 418 L 762 418 L 761 419 L 758 419 L 757 420 L 755 420 L 754 421 L 753 421 L 752 422 L 751 422 L 748 425 L 748 426 L 747 427 L 747 432 L 748 433 L 748 434 L 753 434 L 754 433 L 756 433 L 757 432 L 759 432 L 760 431 L 773 431 L 774 432 L 775 432 L 776 433 L 776 448 L 777 449 L 777 450 L 774 453 L 771 453 L 770 454 L 769 454 L 768 455 L 767 455 L 765 457 L 764 457 L 760 461 L 759 461 L 753 467 L 752 467 L 745 474 L 745 475 L 741 479 L 741 480 L 738 483 L 738 484 L 736 486 L 736 487 L 734 489 L 734 490 L 733 491 L 733 492 L 731 494 L 731 495 L 730 496 L 730 497 L 729 498 L 729 499 L 727 501 L 727 502 L 726 503 L 726 504 L 725 505 L 725 506 L 724 507 L 724 508 L 722 510 L 722 511 L 721 512 L 721 513 L 720 514 L 720 515 L 719 516 L 719 518 L 718 519 L 718 520 L 717 521 L 717 522 L 716 523 L 716 525 L 715 526 L 715 528 L 714 529 L 714 540 L 715 540 L 716 541 L 718 541 L 721 538 L 721 537 L 722 536 L 722 534 L 723 533 L 723 531 L 724 530 L 724 526 L 725 525 L 725 523 L 726 522 L 726 521 L 727 520 L 727 519 L 728 518 L 728 517 L 729 516 L 729 515 L 730 514 L 730 513 L 732 511 L 732 510 L 733 509 L 733 508 L 735 506 L 735 505 L 738 502 L 738 501 L 741 498 L 741 497 L 744 494 L 744 493 L 748 489 L 748 488 L 753 483 L 753 482 L 765 470 L 766 470 L 769 467 L 770 467 L 773 464 L 774 464 L 776 462 L 777 463 L 777 464 L 778 465 L 778 467 L 779 468 L 779 469 L 780 470 L 780 471 L 781 472 L 781 473 L 782 474 L 782 476 L 783 477 L 783 480 L 776 487 L 776 488 L 773 491 L 773 492 L 771 494 L 771 495 L 769 497 L 769 498 L 767 500 L 767 501 L 765 503 L 765 504 L 764 505 L 764 506 L 763 507 L 763 508 L 762 509 L 762 510 L 761 511 L 761 513 L 760 514 L 760 516 L 759 517 L 759 522 L 758 523 L 758 528 L 759 529 L 759 533 L 760 534 L 760 535 L 761 536 L 761 538 L 763 540 L 763 541 L 767 545 L 768 545 L 769 546 L 772 546 L 773 545 L 774 545 L 774 543 L 773 542 L 773 541 L 771 539 L 771 538 L 770 537 L 770 536 L 769 535 L 769 533 L 768 532 L 768 523 L 769 522 L 769 519 L 770 518 L 770 516 L 771 515 L 771 514 L 772 513 L 772 511 L 774 509 L 774 508 L 775 507 L 775 506 L 777 504 L 777 503 L 779 501 L 779 500 L 783 496 L 783 495 L 788 490 L 788 489 L 789 488 L 792 491 L 792 492 L 796 496 L 796 497 L 799 500 L 800 500 L 801 501 L 801 503 L 800 504 L 800 505 L 799 506 L 799 507 L 798 508 L 798 509 L 797 510 L 797 511 L 795 513 L 795 514 L 794 515 L 794 516 L 793 517 L 793 518 L 791 520 L 791 521 L 790 522 L 790 524 L 789 525 L 789 526 L 788 527 L 788 529 L 787 530 L 787 533 L 786 534 L 786 541 L 787 542 L 787 545 L 788 546 L 788 547 L 789 548 L 789 549 L 790 550 L 790 551 L 791 552 L 791 553 L 798 560 L 801 560 L 802 559 L 803 559 L 803 555 L 802 554 L 802 552 L 801 551 L 801 549 L 800 548 L 800 546 L 799 545 L 799 534 L 800 533 L 800 529 L 801 528 L 801 525 L 802 524 L 802 522 L 803 521 L 803 519 L 804 518 L 804 516 L 805 515 L 805 513 L 806 512 L 806 510 L 807 509 L 807 507 L 808 506 L 809 507 L 810 507 L 812 509 L 813 509 L 814 510 L 816 510 L 817 511 L 818 511 L 819 512 L 821 512 L 822 513 L 825 513 L 826 514 L 827 514 L 828 515 L 826 517 L 826 519 L 825 520 L 825 522 L 824 523 L 824 526 L 823 527 L 823 531 L 822 532 L 822 540 L 821 541 L 821 558 L 822 559 L 822 562 L 823 563 L 823 565 L 824 566 L 824 568 L 825 569 L 825 570 L 827 572 L 827 573 L 829 575 L 834 575 L 834 567 L 833 566 L 833 563 L 832 562 L 832 558 L 831 557 L 831 551 L 830 550 L 830 541 L 831 540 L 831 534 L 832 533 L 832 529 L 833 528 L 833 525 L 834 524 L 834 522 L 835 521 L 835 519 L 836 518 L 836 517 L 837 516 L 854 516 L 855 517 L 855 518 L 853 520 L 853 521 L 852 522 L 852 523 L 851 524 L 851 525 L 850 526 L 850 527 L 849 528 L 849 529 L 848 530 L 848 531 L 847 532 L 847 534 L 846 535 L 846 538 L 845 539 L 845 545 L 844 546 L 844 549 L 845 550 L 845 558 L 846 559 L 846 562 L 847 563 L 847 566 L 848 567 L 848 569 L 849 570 L 849 572 L 850 573 L 850 575 L 851 576 L 851 578 L 852 579 L 852 580 L 853 581 L 855 581 L 856 582 L 856 583 L 856 582 L 857 581 L 857 571 L 856 570 L 856 567 L 855 566 L 855 563 L 854 562 L 854 559 L 853 558 L 853 543 L 854 542 L 854 539 L 855 538 L 855 536 L 856 535 L 856 534 L 857 533 L 857 532 L 858 531 L 858 530 L 859 529 L 859 528 L 861 526 L 861 525 L 863 523 L 863 522 L 868 517 L 869 518 L 869 524 L 868 525 L 868 527 L 867 528 L 867 530 L 866 531 L 866 534 L 865 535 L 865 538 L 864 539 L 864 550 L 865 551 L 865 555 L 866 556 L 866 559 L 867 560 L 867 563 L 868 564 L 868 568 L 869 569 L 869 572 L 870 573 L 870 576 L 871 577 L 871 581 L 872 582 L 872 586 L 873 587 L 873 591 L 874 592 L 874 597 L 875 598 L 875 603 L 876 604 L 876 609 L 877 610 L 877 615 L 878 616 L 878 621 L 879 622 L 879 626 L 880 627 L 880 630 L 881 631 L 881 634 L 882 635 L 882 638 L 883 639 L 883 642 L 884 643 L 884 646 L 885 647 L 885 649 L 886 650 L 886 653 L 887 654 L 887 657 L 888 658 L 888 661 L 889 662 L 889 664 L 890 665 L 890 666 L 891 667 L 891 668 L 893 670 L 894 670 L 895 671 L 902 671 L 903 670 L 906 670 L 907 669 L 908 669 L 909 668 L 910 668 L 911 667 L 912 667 L 913 666 L 914 666 L 915 665 L 916 665 L 917 664 L 918 664 L 919 663 L 920 663 L 922 661 L 922 660 L 924 658 L 924 657 L 923 657 L 921 655 L 921 653 L 920 652 L 919 652 L 918 651 L 911 651 L 910 652 L 903 652 L 902 653 L 901 653 L 900 652 L 900 650 L 899 649 L 899 646 L 898 645 L 898 641 L 897 640 L 897 637 L 896 636 L 896 633 L 895 632 L 895 629 L 894 628 L 894 625 L 893 624 L 893 621 L 892 620 L 892 617 L 891 616 L 891 612 L 890 611 L 890 608 L 889 607 L 889 602 L 888 601 L 888 597 L 887 596 L 887 591 L 886 590 L 886 585 L 885 584 L 885 579 L 884 578 L 884 572 L 883 571 L 883 565 L 882 564 L 882 559 L 881 558 L 881 553 L 880 552 L 880 546 L 881 545 L 882 545 L 883 546 L 884 546 L 886 548 L 887 548 L 889 550 L 890 550 L 897 557 L 897 558 L 900 561 L 900 562 L 902 564 L 902 565 L 903 566 L 903 567 L 905 569 L 905 570 L 906 571 L 906 572 L 907 573 L 907 574 L 908 575 L 908 576 L 909 577 L 909 578 L 910 579 L 910 580 L 911 581 L 911 582 L 912 583 L 912 584 L 913 585 L 913 586 L 914 587 L 914 588 L 915 589 L 915 591 L 916 592 L 916 594 L 917 595 L 917 597 L 918 598 L 918 600 L 919 601 L 919 604 L 920 605 L 920 609 L 921 610 L 921 614 L 922 615 L 922 618 L 923 619 L 923 623 L 924 624 L 924 627 L 925 628 L 925 632 L 926 633 L 926 636 L 927 637 L 927 641 L 928 642 L 928 646 L 929 647 L 929 649 L 930 650 L 930 651 L 932 653 L 933 653 L 934 654 L 942 654 L 943 653 L 945 653 L 946 652 L 948 652 L 949 651 L 950 651 L 951 650 L 953 650 L 954 649 L 956 649 L 957 648 L 958 648 L 959 647 L 960 647 L 961 646 L 963 646 L 964 645 L 965 645 L 970 640 L 969 639 L 967 639 L 966 638 L 966 637 L 968 635 L 968 634 L 967 633 L 965 633 L 964 632 L 963 632 L 962 633 L 958 633 L 957 634 L 953 634 L 952 635 L 949 635 L 948 636 L 944 636 L 943 637 L 942 637 L 940 635 L 940 634 L 939 633 L 939 632 L 938 631 L 938 629 L 937 628 L 937 625 L 936 624 L 936 621 L 935 620 L 935 617 L 934 616 L 934 613 L 933 612 L 933 609 L 932 608 L 932 605 L 931 604 L 931 601 L 930 600 L 930 598 L 929 597 L 929 594 L 928 593 L 928 591 L 927 590 L 927 588 L 926 587 L 926 585 L 925 584 L 925 583 L 924 582 L 924 580 L 923 579 L 923 577 L 922 576 L 922 575 L 921 574 L 921 573 L 920 572 L 920 570 L 919 569 L 919 568 L 918 567 L 918 566 L 917 565 L 917 564 L 916 563 L 916 562 L 915 561 L 915 560 L 914 559 L 914 558 L 913 557 L 913 556 L 912 555 L 912 554 L 910 552 L 910 551 L 908 549 L 908 548 L 906 546 L 906 545 L 903 542 L 903 541 L 897 535 L 897 534 L 892 529 L 891 529 L 882 520 L 882 519 L 879 516 L 879 515 L 877 513 L 877 511 L 878 510 L 879 510 L 880 509 L 881 509 L 882 508 L 884 508 L 885 507 L 886 507 L 887 506 L 888 506 L 889 505 L 890 505 L 891 504 L 892 504 L 893 503 L 894 503 L 895 502 L 896 502 L 897 501 L 898 501 L 899 500 L 900 500 L 901 499 L 902 499 L 903 498 L 904 498 L 905 497 L 906 497 L 908 495 L 909 495 L 910 494 L 911 494 L 913 492 L 914 492 L 915 491 L 916 491 L 918 489 L 919 489 L 921 487 L 922 487 L 924 485 L 925 485 L 928 482 L 929 482 L 932 479 L 933 479 L 936 476 L 937 476 L 940 473 L 941 473 L 945 469 L 946 469 L 948 467 L 949 467 L 953 463 L 954 463 L 957 460 L 958 460 L 964 454 L 966 454 L 967 455 L 968 455 L 969 456 L 970 456 L 971 457 L 972 457 L 973 458 L 975 458 L 976 459 L 977 459 L 978 460 L 980 460 L 981 461 L 983 461 L 984 462 L 987 462 L 988 463 L 994 463 L 995 464 L 1015 464 L 1016 463 L 1022 463 L 1023 462 L 1023 451 L 1018 451 L 1017 452 L 996 452 L 995 451 L 991 451 L 990 450 L 988 450 L 987 449 L 984 449 L 983 448 L 981 448 L 980 447 L 979 447 L 978 446 L 976 446 L 975 445 L 975 444 L 977 442 L 977 441 L 981 437 L 981 436 L 985 432 L 985 431 L 997 419 L 1004 419 L 1005 418 L 1007 418 L 1009 416 L 1010 416 L 1013 413 L 1013 411 L 1014 410 L 1014 404 L 1013 403 L 1013 400 L 1012 399 L 1012 398 L 1011 397 L 1011 396 L 1010 395 L 1010 394 L 1008 392 L 1008 391 L 1005 388 L 997 388 L 996 389 L 995 389 L 990 394 L 990 395 L 988 397 L 988 398 L 987 399 L 987 401 L 986 402 L 986 404 L 985 405 L 985 410 L 984 411 L 984 414 L 983 415 L 983 416 L 981 418 L 981 419 L 964 436 L 963 436 L 962 437 L 961 437 L 960 436 L 959 436 L 956 433 L 955 433 L 943 421 L 943 420 L 940 417 L 940 416 L 938 414 L 938 413 L 940 411 L 941 411 L 943 409 L 944 409 L 947 406 L 948 406 L 950 404 L 951 404 L 953 402 L 954 402 L 956 400 L 957 400 L 959 398 L 960 398 L 961 397 L 962 397 L 964 395 L 965 395 L 967 393 L 968 393 L 969 392 L 970 392 L 972 390 L 973 390 L 975 388 L 976 388 L 977 387 L 978 387 L 979 386 L 980 386 L 982 384 L 983 384 L 984 383 L 985 383 L 987 381 L 988 381 L 989 380 L 990 380 L 992 378 L 993 378 L 994 377 L 995 377 L 997 375 L 998 375 L 999 374 L 1000 374 L 1002 372 L 1003 372 L 1004 371 L 1006 371 L 1007 370 L 1008 371 L 1008 372 L 1009 373 L 1009 374 L 1010 375 L 1010 376 L 1011 377 L 1011 378 L 1012 379 L 1012 380 L 1013 381 L 1013 382 L 1014 383 L 1014 384 L 1016 386 L 1016 387 L 1017 388 L 1017 389 L 1019 391 L 1019 392 L 1020 393 L 1020 394 L 1021 395 L 1021 396 L 1023 398 L 1023 399 L 1023 371 L 1022 370 L 1022 369 L 1021 368 L 1021 367 L 1020 366 L 1020 365 L 1019 364 L 1019 363 L 1018 362 L 1019 361 L 1020 361 L 1022 359 L 1023 359 L 1023 343 L 1022 344 L 1021 344 L 1020 345 L 1019 345 L 1017 347 L 1016 347 L 1015 348 L 1014 348 L 1013 349 L 1012 349 L 1010 347 L 1010 346 L 1009 345 L 1009 344 L 1008 343 L 1008 342 L 1007 341 L 1007 339 L 1006 338 L 1006 337 L 1005 336 L 1005 335 L 1004 334 L 1004 333 L 1003 332 L 1003 331 L 1002 330 L 1002 329 L 1001 328 L 1001 327 L 1000 326 L 1000 325 L 999 324 L 999 323 L 998 322 L 998 321 L 997 320 L 997 319 L 996 318 L 996 317 L 995 316 L 995 315 L 994 314 L 994 313 L 993 312 L 993 311 L 992 310 L 992 309 L 991 308 L 991 307 L 990 306 L 990 305 L 989 304 L 989 303 L 988 302 L 988 301 L 987 300 L 987 298 L 986 297 L 986 296 L 985 295 L 985 294 L 984 293 L 984 291 L 983 290 L 983 289 L 982 288 L 982 285 L 983 284 L 987 284 L 988 283 L 994 283 L 995 282 L 1008 282 L 1009 281 L 1018 281 L 1019 282 L 1023 282 L 1023 265 L 1016 265 L 1015 264 Z" fill="#FFFFFF"/>
      <animateTransform attributeName="transform"
                        attributeType="XML"
                        type="translate"
                        values="0 0; 11.59 8.42; -6.954 -5.052; 0 0"
                        dur="16.9s"
                        repeatCount="indefinite"
                        calcMode="spline"
                        keySplines="0.25 0.1 0.25 1; 0.25 0.1 0.25 1; 0.25 0.1 0.25 1" />
      <animateTransform attributeName="transform"
                        attributeType="XML"
                        type="rotate"
                        values="0; 2.39; -1.434; 0"
                        dur="16.57s"
                        repeatCount="indefinite"
                        additive="sum"
                        calcMode="spline"
                        keySplines="0.25 0.1 0.25 1; 0.25 0.1 0.25 1; 0.25 0.1 0.25 1" />
    </g>
    

    <g id="g10" class="piece" transform="translate(0 0)">
      <path d="M 643 174 L 643 175 L 644 176 L 644 180 L 643 181 L 642 180 L 642 179 L 641 178 L 641 176 L 640 177 L 639 177 L 639 184 L 640 185 L 640 187 L 641 188 L 641 190 L 642 191 L 642 193 L 643 194 L 643 196 L 644 197 L 644 200 L 645 201 L 645 204 L 646 205 L 646 209 L 647 210 L 647 222 L 646 223 L 646 226 L 645 227 L 645 228 L 644 229 L 644 231 L 642 233 L 642 234 L 640 236 L 640 237 L 633 244 L 632 244 L 630 246 L 629 246 L 628 247 L 627 247 L 626 248 L 625 248 L 624 249 L 623 249 L 622 250 L 620 250 L 619 251 L 618 251 L 617 252 L 615 252 L 614 253 L 612 253 L 611 254 L 609 254 L 608 255 L 604 255 L 603 256 L 590 256 L 589 255 L 587 255 L 586 254 L 584 254 L 583 253 L 582 253 L 580 251 L 579 251 L 577 249 L 576 249 L 572 245 L 572 244 L 569 241 L 569 240 L 567 238 L 567 237 L 566 236 L 566 235 L 565 234 L 565 233 L 564 232 L 564 231 L 563 230 L 563 228 L 562 227 L 562 226 L 561 225 L 561 224 L 560 223 L 560 222 L 559 221 L 559 220 L 557 218 L 557 219 L 556 220 L 555 219 L 555 220 L 554 221 L 552 219 L 552 218 L 552 221 L 551 222 L 550 221 L 549 221 L 548 220 L 548 229 L 549 230 L 549 233 L 550 234 L 550 236 L 551 237 L 551 239 L 553 241 L 553 242 L 554 243 L 554 244 L 556 246 L 556 247 L 559 250 L 559 251 L 570 262 L 571 262 L 573 264 L 574 264 L 575 265 L 576 265 L 578 267 L 580 267 L 581 268 L 582 268 L 583 269 L 585 269 L 586 270 L 588 270 L 589 271 L 594 271 L 595 272 L 598 272 L 599 271 L 606 271 L 607 270 L 611 270 L 612 269 L 614 269 L 615 268 L 617 268 L 618 269 L 618 271 L 619 272 L 619 273 L 620 274 L 620 276 L 621 277 L 621 278 L 622 279 L 622 281 L 623 282 L 623 284 L 624 285 L 624 287 L 625 288 L 625 290 L 626 291 L 626 293 L 627 294 L 627 297 L 628 298 L 628 300 L 629 301 L 629 304 L 628 305 L 627 305 L 626 306 L 625 306 L 624 307 L 622 307 L 621 308 L 620 308 L 619 309 L 618 309 L 617 310 L 616 310 L 615 311 L 614 311 L 613 312 L 612 312 L 605 319 L 605 321 L 604 322 L 604 330 L 605 331 L 605 334 L 606 335 L 606 338 L 607 339 L 607 341 L 608 342 L 608 344 L 609 345 L 609 348 L 610 349 L 610 356 L 609 357 L 609 359 L 608 360 L 608 362 L 607 363 L 607 364 L 605 366 L 605 367 L 602 370 L 602 371 L 598 375 L 598 376 L 595 379 L 597 377 L 598 377 L 600 375 L 601 375 L 602 376 L 599 379 L 598 379 L 596 381 L 597 380 L 598 380 L 600 378 L 601 378 L 602 379 L 598 383 L 599 384 L 600 383 L 602 383 L 603 382 L 604 382 L 607 379 L 608 379 L 614 373 L 614 372 L 618 368 L 618 367 L 620 365 L 620 364 L 621 363 L 621 362 L 622 361 L 622 359 L 623 358 L 623 355 L 624 354 L 624 345 L 623 344 L 623 340 L 622 339 L 622 336 L 621 335 L 621 334 L 620 333 L 620 331 L 619 330 L 619 328 L 618 327 L 620 325 L 621 325 L 623 323 L 624 323 L 625 322 L 626 322 L 627 321 L 628 321 L 629 320 L 631 320 L 632 319 L 633 319 L 634 318 L 635 318 L 636 317 L 637 317 L 638 316 L 639 316 L 640 315 L 641 315 L 642 314 L 643 314 L 644 313 L 645 313 L 646 312 L 648 312 L 649 311 L 650 311 L 651 310 L 652 310 L 653 309 L 654 309 L 655 308 L 656 308 L 657 307 L 659 307 L 660 306 L 661 306 L 662 305 L 663 305 L 664 304 L 665 304 L 666 303 L 668 303 L 669 302 L 671 302 L 672 303 L 672 305 L 673 306 L 673 308 L 674 309 L 674 310 L 675 311 L 675 313 L 676 314 L 676 315 L 678 317 L 678 318 L 679 319 L 679 320 L 682 323 L 682 324 L 689 331 L 690 331 L 692 333 L 693 333 L 694 334 L 695 334 L 696 335 L 697 335 L 698 336 L 700 336 L 701 337 L 713 337 L 714 336 L 717 336 L 718 335 L 719 335 L 720 334 L 722 334 L 723 333 L 724 333 L 725 332 L 726 332 L 721 332 L 720 331 L 716 331 L 715 330 L 716 329 L 719 329 L 720 328 L 724 328 L 722 328 L 721 327 L 719 327 L 718 326 L 712 326 L 711 325 L 707 325 L 706 324 L 703 324 L 702 323 L 700 323 L 699 322 L 698 322 L 696 320 L 695 320 L 689 314 L 689 313 L 687 311 L 687 310 L 686 309 L 686 308 L 685 307 L 685 305 L 684 304 L 684 302 L 683 301 L 683 298 L 682 297 L 682 293 L 681 292 L 681 291 L 680 290 L 679 290 L 677 288 L 675 288 L 674 287 L 668 287 L 667 288 L 665 288 L 664 289 L 662 289 L 661 290 L 660 290 L 659 291 L 657 291 L 656 292 L 655 292 L 654 293 L 653 293 L 652 294 L 650 294 L 649 295 L 648 295 L 647 296 L 646 296 L 645 297 L 644 297 L 642 295 L 642 293 L 641 292 L 641 290 L 640 289 L 640 287 L 639 286 L 639 285 L 638 284 L 638 282 L 637 281 L 637 279 L 636 278 L 636 277 L 635 276 L 635 275 L 634 274 L 634 272 L 633 271 L 633 270 L 632 269 L 632 268 L 631 267 L 631 265 L 630 264 L 630 263 L 631 262 L 632 262 L 633 261 L 634 261 L 635 260 L 636 260 L 638 258 L 639 258 L 641 256 L 642 256 L 651 247 L 651 246 L 653 244 L 653 243 L 654 242 L 654 241 L 656 239 L 656 238 L 657 237 L 657 236 L 658 235 L 658 233 L 659 232 L 659 230 L 660 229 L 660 227 L 661 226 L 661 212 L 660 211 L 660 207 L 659 206 L 659 203 L 658 202 L 658 199 L 657 198 L 657 196 L 656 195 L 656 194 L 655 193 L 655 192 L 654 191 L 654 190 L 653 189 L 653 187 L 652 186 L 652 185 L 651 184 L 651 183 L 650 182 L 650 181 L 649 180 L 649 179 L 648 178 L 648 177 L 646 175 L 646 174 L 645 174 L 644 175 Z" fill="#FFFFFF"/>
      <animateTransform attributeName="transform"
                        attributeType="XML"
                        type="translate"
                        values="0 0; 14.88 11.03; -8.928 -6.617999999999999; 0 0"
                        dur="21.11s"
                        repeatCount="indefinite"
                        calcMode="spline"
                        keySplines="0.25 0.1 0.25 1; 0.25 0.1 0.25 1; 0.25 0.1 0.25 1" />
      <animateTransform attributeName="transform"
                        attributeType="XML"
                        type="rotate"
                        values="0; 2.33; -1.398; 0"
                        dur="21.66s"
                        repeatCount="indefinite"
                        additive="sum"
                        calcMode="spline"
                        keySplines="0.25 0.1 0.25 1; 0.25 0.1 0.25 1; 0.25 0.1 0.25 1" />
    </g>
    

    <g id="g11" class="piece" transform="translate(0 0)">
      <path d="M 354 27 L 355 28 L 355 29 L 358 32 L 357 33 L 357 34 L 359 36 L 359 37 L 363 41 L 363 42 L 364 43 L 364 44 L 365 45 L 365 46 L 366 47 L 366 48 L 367 49 L 367 51 L 368 52 L 368 64 L 367 65 L 367 67 L 362 72 L 361 72 L 360 73 L 358 73 L 357 72 L 356 72 L 354 70 L 354 69 L 352 67 L 352 66 L 351 65 L 351 63 L 350 62 L 350 60 L 349 59 L 349 58 L 348 57 L 348 55 L 347 54 L 347 53 L 346 52 L 346 51 L 344 49 L 344 48 L 341 45 L 341 44 L 340 43 L 339 43 L 337 41 L 336 41 L 335 40 L 332 40 L 330 42 L 330 49 L 331 50 L 331 54 L 332 55 L 332 58 L 333 59 L 333 61 L 334 62 L 334 64 L 335 65 L 335 66 L 336 67 L 336 68 L 337 69 L 337 70 L 339 72 L 339 73 L 345 79 L 346 79 L 347 80 L 348 80 L 349 81 L 350 81 L 351 82 L 362 82 L 363 81 L 365 81 L 366 80 L 367 80 L 373 74 L 373 73 L 375 71 L 375 69 L 376 68 L 376 66 L 377 65 L 377 50 L 376 49 L 376 47 L 375 46 L 375 44 L 374 43 L 374 42 L 373 41 L 373 40 L 371 38 L 371 37 L 363 29 L 362 29 L 361 28 L 358 28 L 357 27 Z" fill="#FFFFFF"/>
      <animateTransform attributeName="transform"
                        attributeType="XML"
                        type="translate"
                        values="0 0; 20.62 10.11; -12.372 -6.066; 0 0"
                        dur="10.29s"
                        repeatCount="indefinite"
                        calcMode="spline"
                        keySplines="0.25 0.1 0.25 1; 0.25 0.1 0.25 1; 0.25 0.1 0.25 1" />
      <animateTransform attributeName="transform"
                        attributeType="XML"
                        type="rotate"
                        values="0; 4.65; -2.79; 0"
                        dur="16.83s"
                        repeatCount="indefinite"
                        additive="sum"
                        calcMode="spline"
                        keySplines="0.25 0.1 0.25 1; 0.25 0.1 0.25 1; 0.25 0.1 0.25 1" />
    </g>
    

    <g id="g12" class="piece" transform="translate(0 0)">
      <path d="M 403 18 L 403 21 L 402 22 L 399 19 L 398 19 L 399 20 L 399 27 L 400 28 L 400 31 L 401 32 L 401 35 L 402 36 L 402 39 L 403 40 L 403 43 L 404 44 L 404 48 L 405 49 L 405 65 L 404 66 L 404 68 L 403 69 L 403 70 L 402 71 L 402 72 L 401 73 L 401 74 L 398 77 L 398 78 L 390 86 L 389 86 L 386 89 L 385 89 L 383 91 L 382 91 L 380 93 L 379 93 L 378 94 L 377 94 L 376 95 L 375 95 L 374 96 L 373 96 L 372 97 L 371 97 L 370 98 L 368 98 L 367 99 L 365 99 L 364 100 L 362 100 L 361 101 L 358 101 L 357 102 L 340 102 L 339 101 L 336 101 L 335 100 L 333 100 L 332 99 L 331 99 L 330 98 L 329 98 L 328 97 L 327 97 L 326 96 L 325 96 L 322 93 L 321 93 L 309 81 L 309 80 L 306 77 L 306 76 L 305 75 L 305 74 L 305 76 L 304 77 L 303 77 L 299 73 L 299 77 L 298 78 L 296 76 L 296 78 L 295 79 L 294 78 L 293 78 L 292 77 L 292 78 L 293 79 L 293 80 L 295 82 L 295 83 L 296 84 L 296 85 L 298 87 L 298 88 L 302 92 L 302 93 L 310 101 L 311 101 L 314 104 L 315 104 L 317 106 L 318 106 L 320 108 L 321 108 L 322 109 L 323 109 L 324 110 L 325 110 L 326 111 L 327 111 L 328 112 L 329 112 L 330 113 L 332 113 L 333 114 L 336 114 L 337 115 L 342 115 L 343 116 L 357 116 L 358 115 L 359 116 L 359 117 L 358 118 L 357 118 L 355 120 L 354 120 L 347 127 L 347 128 L 344 131 L 344 132 L 343 133 L 343 134 L 342 135 L 342 136 L 341 137 L 341 139 L 340 140 L 340 142 L 339 143 L 339 161 L 340 162 L 340 166 L 341 167 L 341 171 L 342 172 L 342 175 L 343 176 L 343 178 L 344 179 L 344 181 L 345 182 L 345 183 L 346 184 L 346 186 L 347 187 L 347 188 L 348 189 L 348 190 L 349 191 L 349 192 L 351 194 L 351 195 L 356 200 L 357 200 L 358 201 L 358 199 L 357 198 L 357 196 L 358 195 L 362 199 L 362 198 L 363 197 L 364 198 L 365 198 L 367 200 L 367 199 L 366 198 L 366 196 L 365 195 L 365 192 L 366 191 L 367 192 L 368 192 L 369 193 L 370 193 L 366 189 L 366 188 L 364 186 L 364 185 L 363 184 L 363 183 L 361 181 L 361 180 L 360 179 L 360 178 L 359 177 L 359 176 L 358 175 L 358 174 L 357 173 L 357 171 L 356 170 L 356 169 L 355 168 L 355 165 L 354 164 L 354 160 L 353 159 L 353 149 L 354 148 L 354 146 L 355 145 L 355 143 L 356 142 L 356 141 L 357 140 L 357 139 L 360 136 L 360 135 L 361 134 L 362 134 L 365 131 L 366 131 L 367 130 L 368 130 L 369 129 L 371 129 L 372 128 L 377 128 L 380 131 L 380 132 L 383 135 L 383 136 L 385 138 L 385 139 L 386 140 L 386 141 L 387 142 L 387 143 L 388 144 L 388 145 L 389 146 L 389 147 L 390 148 L 390 149 L 391 150 L 391 151 L 392 152 L 392 153 L 393 154 L 393 155 L 394 156 L 394 157 L 396 159 L 396 160 L 397 161 L 397 162 L 398 163 L 398 164 L 399 165 L 399 161 L 400 160 L 403 163 L 403 162 L 404 161 L 405 161 L 406 162 L 406 163 L 406 162 L 407 161 L 408 161 L 409 162 L 409 163 L 410 163 L 410 161 L 409 160 L 409 157 L 408 156 L 408 154 L 407 153 L 407 152 L 406 151 L 406 149 L 405 148 L 405 147 L 404 146 L 404 145 L 403 144 L 403 143 L 402 142 L 402 141 L 401 140 L 401 139 L 400 138 L 400 137 L 399 136 L 399 135 L 397 133 L 397 132 L 396 131 L 396 130 L 395 129 L 395 128 L 394 127 L 394 125 L 393 124 L 393 115 L 394 114 L 394 113 L 399 108 L 400 108 L 401 107 L 402 107 L 403 106 L 404 106 L 405 105 L 408 105 L 409 104 L 415 104 L 416 103 L 418 103 L 419 104 L 423 104 L 424 105 L 426 105 L 427 106 L 428 106 L 429 107 L 430 107 L 432 109 L 433 109 L 438 114 L 438 115 L 440 117 L 440 118 L 441 119 L 441 120 L 442 121 L 442 123 L 443 124 L 443 126 L 444 127 L 444 132 L 445 133 L 445 140 L 446 141 L 446 146 L 447 146 L 448 145 L 450 145 L 452 147 L 452 148 L 453 149 L 453 150 L 454 150 L 454 147 L 455 146 L 456 146 L 457 145 L 457 144 L 458 143 L 459 144 L 459 125 L 458 124 L 458 118 L 457 117 L 457 114 L 456 113 L 456 111 L 455 110 L 455 109 L 454 108 L 454 107 L 453 106 L 453 105 L 452 104 L 452 103 L 446 97 L 445 97 L 444 96 L 443 96 L 442 95 L 441 95 L 440 94 L 439 94 L 438 93 L 436 93 L 435 92 L 433 92 L 432 91 L 428 91 L 427 90 L 421 90 L 420 89 L 410 89 L 409 88 L 410 87 L 410 85 L 411 84 L 411 83 L 412 82 L 412 81 L 413 80 L 413 79 L 414 78 L 414 77 L 415 76 L 415 74 L 416 73 L 416 71 L 417 70 L 417 67 L 418 66 L 418 60 L 419 59 L 419 53 L 418 52 L 418 46 L 417 45 L 417 42 L 416 41 L 416 38 L 415 37 L 415 36 L 414 35 L 414 33 L 413 32 L 413 31 L 412 30 L 412 29 L 411 28 L 411 27 L 410 26 L 409 27 L 407 25 L 407 24 L 406 23 L 406 22 L 405 21 L 405 20 Z" fill="#FFFFFF"/>
      <animateTransform attributeName="transform"
                        attributeType="XML"
                        type="translate"
                        values="0 0; 29.75 21.36; -17.849999999999998 -12.815999999999999; 0 0"
                        dur="17.58s"
                        repeatCount="indefinite"
                        calcMode="spline"
                        keySplines="0.25 0.1 0.25 1; 0.25 0.1 0.25 1; 0.25 0.1 0.25 1" />
      <animateTransform attributeName="transform"
                        attributeType="XML"
                        type="rotate"
                        values="0; 3.78; -2.268; 0"
                        dur="25.17s"
                        repeatCount="indefinite"
                        additive="sum"
                        calcMode="spline"
                        keySplines="0.25 0.1 0.25 1; 0.25 0.1 0.25 1; 0.25 0.1 0.25 1" />
    </g>
    

    <g id="g13" class="piece" transform="translate(0 0)">
      <path d="M 87 2 L 85 4 L 84 4 L 83 5 L 82 5 L 81 6 L 80 6 L 77 9 L 76 9 L 71 14 L 70 14 L 63 21 L 62 21 L 58 25 L 57 25 L 54 28 L 53 28 L 51 30 L 50 30 L 48 32 L 47 32 L 45 34 L 44 34 L 42 36 L 41 36 L 40 37 L 39 37 L 37 39 L 36 39 L 35 40 L 34 40 L 33 41 L 32 41 L 31 42 L 30 42 L 29 43 L 23 43 L 19 39 L 18 39 L 8 29 L 7 29 L 4 26 L 3 26 L 2 25 L 0 25 L 0 130 L 2 130 L 3 131 L 12 131 L 13 132 L 22 132 L 23 133 L 31 133 L 32 134 L 40 134 L 41 135 L 47 135 L 48 136 L 55 136 L 56 137 L 62 137 L 63 138 L 70 138 L 71 139 L 78 139 L 79 140 L 85 140 L 86 141 L 93 141 L 94 142 L 99 142 L 100 143 L 104 143 L 105 144 L 109 144 L 110 145 L 113 145 L 114 146 L 115 146 L 116 147 L 116 157 L 115 158 L 115 181 L 114 182 L 114 198 L 113 199 L 113 201 L 112 202 L 103 202 L 102 201 L 95 201 L 94 200 L 86 200 L 85 199 L 78 199 L 77 198 L 68 198 L 67 197 L 59 197 L 58 196 L 46 196 L 45 195 L 32 195 L 31 194 L 0 194 L 0 212 L 33 212 L 34 213 L 55 213 L 56 214 L 77 214 L 78 215 L 96 215 L 97 216 L 102 216 L 103 217 L 104 217 L 105 218 L 106 218 L 109 221 L 109 223 L 110 224 L 110 251 L 109 252 L 109 259 L 108 260 L 108 264 L 107 265 L 107 266 L 106 267 L 104 267 L 103 268 L 52 268 L 51 267 L 37 267 L 36 266 L 25 266 L 24 265 L 15 265 L 14 264 L 4 264 L 3 263 L 0 263 L 0 282 L 6 282 L 7 283 L 16 283 L 17 284 L 28 284 L 29 285 L 44 285 L 45 286 L 62 286 L 63 287 L 100 287 L 101 286 L 104 286 L 105 287 L 105 298 L 104 299 L 104 312 L 103 313 L 103 328 L 102 329 L 102 338 L 101 339 L 90 339 L 89 338 L 79 338 L 78 337 L 69 337 L 68 336 L 60 336 L 59 335 L 47 335 L 46 334 L 32 334 L 31 333 L 30 334 L 30 335 L 28 337 L 30 339 L 29 340 L 27 340 L 29 342 L 30 342 L 31 343 L 32 343 L 33 344 L 34 344 L 35 345 L 34 346 L 31 346 L 30 345 L 33 348 L 35 348 L 36 349 L 38 349 L 39 350 L 43 350 L 44 351 L 50 351 L 51 352 L 56 352 L 57 353 L 63 353 L 64 354 L 71 354 L 72 355 L 94 355 L 96 357 L 96 358 L 97 359 L 97 367 L 96 368 L 96 393 L 95 394 L 95 412 L 94 413 L 94 416 L 91 419 L 90 419 L 89 420 L 72 420 L 71 419 L 61 419 L 60 418 L 51 418 L 50 417 L 43 417 L 42 416 L 34 416 L 33 415 L 26 415 L 25 414 L 19 414 L 18 413 L 11 413 L 10 412 L 4 412 L 3 411 L 0 411 L 0 427 L 1 428 L 7 428 L 8 429 L 14 429 L 15 430 L 21 430 L 22 431 L 29 431 L 30 432 L 37 432 L 38 433 L 46 433 L 47 434 L 54 434 L 55 435 L 62 435 L 63 436 L 74 436 L 75 437 L 94 437 L 95 436 L 98 436 L 99 435 L 101 435 L 103 433 L 104 433 L 108 429 L 108 428 L 109 427 L 109 426 L 110 425 L 110 423 L 111 422 L 111 420 L 112 419 L 112 413 L 113 412 L 113 389 L 114 388 L 114 369 L 115 368 L 115 360 L 116 359 L 116 352 L 117 351 L 117 346 L 118 345 L 118 339 L 119 338 L 119 332 L 120 331 L 120 321 L 121 320 L 121 283 L 122 282 L 122 276 L 123 275 L 123 271 L 124 270 L 124 267 L 125 266 L 125 263 L 126 262 L 126 259 L 127 258 L 127 256 L 128 255 L 128 252 L 129 251 L 129 249 L 130 248 L 130 246 L 131 245 L 131 243 L 132 242 L 132 240 L 133 239 L 133 236 L 134 235 L 134 232 L 135 231 L 135 227 L 136 226 L 136 217 L 137 216 L 137 211 L 136 210 L 136 207 L 135 206 L 135 204 L 134 203 L 134 202 L 133 201 L 133 193 L 134 192 L 134 180 L 135 179 L 135 167 L 136 166 L 136 156 L 137 155 L 138 155 L 139 156 L 140 156 L 141 157 L 142 157 L 143 158 L 145 158 L 146 159 L 148 159 L 149 160 L 151 160 L 152 161 L 154 161 L 155 162 L 157 162 L 158 163 L 161 163 L 162 164 L 165 164 L 166 165 L 169 165 L 170 166 L 173 166 L 174 167 L 178 167 L 179 168 L 182 168 L 183 169 L 187 169 L 188 170 L 192 170 L 193 171 L 194 171 L 195 170 L 196 170 L 199 167 L 199 163 L 195 159 L 194 159 L 192 157 L 191 157 L 190 156 L 188 156 L 187 155 L 185 155 L 184 154 L 182 154 L 181 153 L 179 153 L 178 152 L 175 152 L 174 151 L 173 151 L 172 150 L 170 150 L 169 149 L 167 149 L 166 148 L 165 148 L 164 147 L 163 147 L 162 146 L 161 146 L 160 145 L 159 145 L 158 144 L 157 144 L 156 143 L 157 142 L 158 142 L 160 140 L 161 140 L 164 137 L 165 137 L 179 123 L 179 122 L 183 118 L 183 117 L 185 115 L 185 114 L 187 112 L 187 111 L 189 109 L 189 108 L 190 107 L 189 107 L 187 109 L 185 109 L 184 110 L 182 110 L 181 109 L 181 108 L 182 107 L 182 104 L 183 103 L 183 102 L 182 102 L 181 103 L 179 103 L 178 102 L 176 102 L 175 101 L 175 100 L 174 100 L 171 103 L 171 104 L 165 110 L 165 111 L 156 120 L 155 120 L 151 124 L 150 124 L 148 126 L 147 126 L 146 127 L 145 127 L 144 128 L 143 128 L 142 129 L 138 129 L 137 128 L 135 128 L 134 127 L 133 127 L 132 126 L 131 126 L 130 125 L 129 125 L 127 123 L 126 123 L 121 118 L 120 118 L 71 69 L 71 68 L 55 52 L 55 48 L 62 41 L 63 41 L 65 39 L 66 39 L 68 37 L 69 37 L 71 35 L 72 35 L 74 33 L 75 33 L 77 31 L 78 31 L 86 23 L 86 22 L 89 19 L 89 18 L 91 16 L 91 15 L 92 14 L 92 8 L 91 7 L 91 5 L 89 3 L 88 3 Z" fill="#FFFFFF"/>
      <animateTransform attributeName="transform"
                        attributeType="XML"
                        type="translate"
                        values="0 0; 24.62 11.5; -14.772 -6.8999999999999995; 0 0"
                        dur="12.42s"
                        repeatCount="indefinite"
                        calcMode="spline"
                        keySplines="0.25 0.1 0.25 1; 0.25 0.1 0.25 1; 0.25 0.1 0.25 1" />
      <animateTransform attributeName="transform"
                        attributeType="XML"
                        type="rotate"
                        values="0; 1.16; -0.696; 0"
                        dur="14.82s"
                        repeatCount="indefinite"
                        additive="sum"
                        calcMode="spline"
                        keySplines="0.25 0.1 0.25 1; 0.25 0.1 0.25 1; 0.25 0.1 0.25 1" />
    </g>
    

    <g id="g14" class="piece" transform="translate(0 0)">
      <path d="M 1000 0 L 999 1 L 999 4 L 998 5 L 998 8 L 997 9 L 997 14 L 996 15 L 996 22 L 995 23 L 995 32 L 994 33 L 994 40 L 993 41 L 993 46 L 992 47 L 992 50 L 991 51 L 991 53 L 990 54 L 990 55 L 983 62 L 982 62 L 981 63 L 979 63 L 978 64 L 976 64 L 975 65 L 971 65 L 970 66 L 964 66 L 963 67 L 955 67 L 954 68 L 945 68 L 944 69 L 938 69 L 937 70 L 934 70 L 933 71 L 931 71 L 930 72 L 928 72 L 927 73 L 925 73 L 924 74 L 922 74 L 921 75 L 920 75 L 919 76 L 918 76 L 917 77 L 916 77 L 915 78 L 914 78 L 912 80 L 911 80 L 909 82 L 908 82 L 906 84 L 905 84 L 904 85 L 903 85 L 901 87 L 900 87 L 899 88 L 898 88 L 897 89 L 895 89 L 894 90 L 890 90 L 889 91 L 881 91 L 880 92 L 871 92 L 870 93 L 867 93 L 866 94 L 865 94 L 864 95 L 862 95 L 860 97 L 859 97 L 854 102 L 854 103 L 852 105 L 852 106 L 850 108 L 850 109 L 849 110 L 849 112 L 848 113 L 848 114 L 847 115 L 847 116 L 846 117 L 846 118 L 845 119 L 845 120 L 836 129 L 835 129 L 834 130 L 832 130 L 831 131 L 828 131 L 827 132 L 825 132 L 824 131 L 817 131 L 816 130 L 812 130 L 811 129 L 807 129 L 806 128 L 805 128 L 805 130 L 804 131 L 801 131 L 802 131 L 804 133 L 803 134 L 800 134 L 799 135 L 798 135 L 799 135 L 801 137 L 802 137 L 803 138 L 804 138 L 805 139 L 806 139 L 807 140 L 808 140 L 810 142 L 811 142 L 812 143 L 813 143 L 815 145 L 816 145 L 817 146 L 818 146 L 819 147 L 821 147 L 822 148 L 823 148 L 824 149 L 826 149 L 827 150 L 829 150 L 830 151 L 832 151 L 833 152 L 835 152 L 836 153 L 838 153 L 839 154 L 840 154 L 841 155 L 842 155 L 844 157 L 845 157 L 847 159 L 848 159 L 862 173 L 862 174 L 865 177 L 865 178 L 867 180 L 867 181 L 869 183 L 869 184 L 871 186 L 871 187 L 872 188 L 872 189 L 874 191 L 874 192 L 875 193 L 875 194 L 876 195 L 876 196 L 877 197 L 877 198 L 879 200 L 879 201 L 880 202 L 880 203 L 881 204 L 881 205 L 882 206 L 882 207 L 883 208 L 883 209 L 884 210 L 884 211 L 885 212 L 885 213 L 887 215 L 887 216 L 893 222 L 894 222 L 896 224 L 897 224 L 898 225 L 899 225 L 900 226 L 902 226 L 903 227 L 911 227 L 912 226 L 914 226 L 916 224 L 917 224 L 920 221 L 920 220 L 921 219 L 921 217 L 922 216 L 922 215 L 921 214 L 921 210 L 920 209 L 920 208 L 919 207 L 919 206 L 918 205 L 918 204 L 915 201 L 915 200 L 911 196 L 910 196 L 903 189 L 902 189 L 891 178 L 891 177 L 888 174 L 888 173 L 887 172 L 887 171 L 886 170 L 886 169 L 885 168 L 885 161 L 886 160 L 886 159 L 892 153 L 893 153 L 896 150 L 897 150 L 898 149 L 899 149 L 901 147 L 902 147 L 903 146 L 904 146 L 906 144 L 907 144 L 909 142 L 910 142 L 912 140 L 913 140 L 916 137 L 917 137 L 921 133 L 922 133 L 927 128 L 928 128 L 931 125 L 932 125 L 935 122 L 936 122 L 938 120 L 939 120 L 940 119 L 941 119 L 943 117 L 944 117 L 945 116 L 946 116 L 947 115 L 948 115 L 949 114 L 951 114 L 952 113 L 953 113 L 954 112 L 956 112 L 957 111 L 959 111 L 960 110 L 964 110 L 965 109 L 969 109 L 970 108 L 994 108 L 995 109 L 998 109 L 999 110 L 1000 110 L 1002 112 L 1003 112 L 1006 115 L 1007 115 L 1008 116 L 1008 117 L 1013 122 L 1013 123 L 1015 125 L 1015 126 L 1017 128 L 1017 129 L 1019 131 L 1019 132 L 1020 133 L 1020 134 L 1021 135 L 1021 136 L 1022 137 L 1022 138 L 1023 139 L 1023 140 L 1023 104 L 1019 100 L 1019 99 L 1015 95 L 1015 94 L 1013 92 L 1013 91 L 1011 89 L 1011 88 L 1010 87 L 1010 86 L 1008 84 L 1008 83 L 1007 82 L 1007 80 L 1006 79 L 1006 77 L 1005 76 L 1005 64 L 1006 63 L 1006 59 L 1007 58 L 1007 55 L 1008 54 L 1008 51 L 1009 50 L 1009 48 L 1010 47 L 1010 44 L 1011 43 L 1011 40 L 1012 39 L 1012 36 L 1013 35 L 1013 31 L 1014 30 L 1014 23 L 1015 22 L 1015 8 L 1014 7 L 1014 1 L 1013 0 Z" fill="#FFFFFF"/>
      <animateTransform attributeName="transform"
                        attributeType="XML"
                        type="translate"
                        values="0 0; 11.06 28.63; -6.636 -17.177999999999997; 0 0"
                        dur="12.41s"
                        repeatCount="indefinite"
                        calcMode="spline"
                        keySplines="0.25 0.1 0.25 1; 0.25 0.1 0.25 1; 0.25 0.1 0.25 1" />
      <animateTransform attributeName="transform"
                        attributeType="XML"
                        type="rotate"
                        values="0; 5.38; -3.2279999999999998; 0"
                        dur="21.8s"
                        repeatCount="indefinite"
                        additive="sum"
                        calcMode="spline"
                        keySplines="0.25 0.1 0.25 1; 0.25 0.1 0.25 1; 0.25 0.1 0.25 1" />
    </g>
    
</svg>
